<svg width="192" height="40" viewBox="0 0 192 40" fill="none" xmlns="http://www.w3.org/2000/svg">
<g filter="url(#filter0_d_170_248)">
<path d="M35.6956 35C32.8366 35 30.4953 34.0919 28.6718 32.2758C27.321 30.9305 26.4318 29.2377 26.0041 27.1973C23.8654 28.8117 21.2427 29.6188 18.136 29.6188C15.6821 29.6188 13.4421 29.0919 11.416 28.0381C9.41243 26.9619 7.83656 25.4933 6.68843 23.6323C5.56281 21.7713 5 19.6749 5 17.343C5 15.0112 5.56281 12.9148 6.68843 11.0538C7.83656 9.1704 9.41243 7.71301 11.416 6.68161C13.4196 5.65022 15.6596 5.13453 18.136 5.13453C21.2427 5.13453 23.9779 5.89686 26.3417 7.42153L27.0171 12.1637H26.7132C26.0378 9.56278 24.507 7.79148 22.1207 6.84978C20.95 6.37892 19.6218 6.1435 18.136 6.1435C15.0968 6.1435 12.5642 7.19731 10.538 9.30493C8.53445 11.4126 7.53264 14.0919 7.53264 17.343C7.53264 20.5717 8.5457 23.2511 10.5718 25.3812C12.5979 27.5112 15.1193 28.5874 18.136 28.6099C19.5993 28.6099 20.9951 28.352 22.3233 27.8363C23.6515 27.3206 24.7884 26.6031 25.7339 25.6839V19.7309C25.7339 19.2377 25.5876 18.8677 25.2949 18.6211C25.0023 18.352 24.5858 18.2175 24.0455 18.2175H23.5052V17.8812H30.1238V18.2175H29.6173C29.0545 18.2175 28.6268 18.352 28.3341 18.6211C28.0414 18.8677 27.9064 19.2377 27.9289 19.7309V24.9103C28.0639 28.4529 29.2233 30.9865 31.407 32.5112C32.9379 33.5874 34.919 34.1256 37.3503 34.1256C38.3634 34.1256 39.4665 34.0247 40.6596 33.8229L40.6934 34.1592C38.8924 34.7197 37.2265 35 35.6956 35Z" fill="#00BCFF"/>
<path d="M40.5145 6.64798H38.3533V26.6928C38.3533 27.2758 38.5559 27.7803 38.9612 28.2063C39.3889 28.6099 39.9067 28.8117 40.5145 28.8117H40.9197L40.9535 29.148H33.5582V28.8117H33.9972C34.5825 28.8117 35.0778 28.6099 35.483 28.2063C35.9107 27.8027 36.1359 27.3094 36.1584 26.7265V8.06054C36.1359 7.47758 35.9107 6.98431 35.483 6.58072C35.0778 6.15471 34.5825 5.9417 33.9972 5.9417H33.5582V5.60538H42.6757C44.7243 5.60538 46.334 6.17713 47.5046 7.32063C48.6753 8.4417 49.2606 9.91032 49.2606 11.7265C49.2606 13.5202 48.6978 15.0785 47.5722 16.4013C46.4691 17.7018 45.1183 18.352 43.5199 18.352C43.8576 18.509 44.2516 18.8229 44.7018 19.2937C45.1746 19.7422 45.5911 20.213 45.9513 20.7063C47.8873 23.4641 49.148 25.1682 49.7333 25.8184C50.3187 26.4462 50.7352 26.8834 50.9828 27.13C51.2304 27.3543 51.5006 27.5785 51.7932 27.8027C52.0859 28.0269 52.3785 28.2063 52.6712 28.3408C53.3241 28.6547 54.6461 28.8117 55.3891 28.8117V29.148H52.9076C51.9396 29.148 51.0391 28.9798 50.2061 28.6435C49.3731 28.2848 48.7428 27.926 48.3151 27.5673C47.9098 27.1861 47.5496 26.8274 47.2345 26.491C46.9418 26.1323 46.1089 24.9664 44.7356 22.9933C43.3623 21.0202 42.5632 19.8991 42.338 19.63C42.1129 19.3386 41.8765 19.0583 41.6289 18.7892C40.9085 18.0269 40.1881 17.6457 39.4677 17.6457V17.3094C39.6478 17.3318 39.8842 17.343 40.1768 17.343C40.4695 17.343 40.8297 17.3318 41.2574 17.3094C44.049 17.2422 45.8049 16.0762 46.5253 13.8117C46.6604 13.3632 46.7279 12.9484 46.7279 12.5673C46.7279 12.1637 46.7279 11.9058 46.7279 11.7937C46.6829 10.2915 46.289 9.08072 45.546 8.16144C44.8031 7.24215 43.8013 6.74888 42.5406 6.68161C42.0003 6.65919 41.325 6.64798 40.5145 6.64798Z" fill="#00BCFF"/>
<path d="M55.828 28.8117C56.4134 28.8117 56.9086 28.6099 57.3139 28.2063C57.7416 27.7803 57.9667 27.2758 57.9892 26.6928V7.85875C57.9892 7.32063 57.7754 6.8722 57.3476 6.51345C56.9199 6.13229 56.4134 5.9417 55.828 5.9417H55.4228L55.3891 5.60538H65.2833C65.9811 5.60538 66.7353 5.53812 67.5457 5.40359C68.3787 5.26906 68.964 5.13453 69.3017 5V9.23767H68.964V8.63229C68.964 8.09417 68.7727 7.63453 68.39 7.25336C68.0298 6.8722 67.5908 6.6704 67.073 6.64798H60.1842V17.0404H65.8911C66.3413 17.0179 66.724 16.8498 67.0392 16.5359C67.3544 16.222 67.512 15.8296 67.512 15.3587V14.8879H67.8497V20.2018H67.512V19.6973C67.512 19.2489 67.3544 18.8677 67.0392 18.5538C66.7466 18.2399 66.3751 18.0717 65.9249 18.0493H60.1842V28.1054H65.0131C66.679 28.1054 67.951 27.7354 68.829 26.9955C69.7069 26.2556 70.4386 25.157 71.0239 23.6996H71.3616L69.403 29.148H55.3891V28.8117H55.828Z" fill="#00BCFF"/>
<path d="M86.3419 29.6188C82.7399 29.5964 79.8133 28.4641 77.5621 26.222C75.3334 23.9798 74.219 21.0314 74.219 17.3767C74.219 13.722 75.3334 10.7735 77.5621 8.53139C79.8133 6.26682 82.7399 5.13453 86.3419 5.13453C89.4486 5.13453 92.1839 5.89686 94.5477 7.42153L95.2231 12.1637H94.9191C94.4239 10.2354 93.4221 8.75561 91.9137 7.72422C90.4279 6.67041 88.5706 6.1435 86.3419 6.1435C83.4828 6.1435 81.1641 7.17489 79.3856 9.23767C77.6296 11.3004 76.7516 14.0135 76.7516 17.3767C76.7516 20.7399 77.6296 23.4529 79.3856 25.5157C81.1641 27.5561 83.4828 28.5874 86.3419 28.6099C87.8052 28.6099 89.1897 28.352 90.4955 27.8363C91.8237 27.3206 92.9831 26.6031 93.9736 25.6839V19.7309C93.9736 19.2377 93.816 18.8677 93.5009 18.6211C93.2082 18.352 92.7917 18.2175 92.2514 18.2175H91.7111V17.8812H98.3298V18.2175H97.8232C97.2604 18.2175 96.8327 18.352 96.54 18.6211C96.2474 18.8677 96.1123 19.2377 96.1348 19.7309V25.2803C95.5495 26.0426 94.8516 26.7265 94.0412 27.3318C93.2307 27.9372 92.1389 28.4753 90.7656 28.9462C89.4149 29.3946 87.9403 29.6188 86.3419 29.6188Z" fill="#00BCFF"/>
<path d="M136.082 6.64798H133.921V26.6928C133.921 27.2758 134.124 27.7803 134.529 28.2063C134.957 28.6099 135.474 28.8117 136.082 28.8117H136.487L136.521 29.148H129.126V28.8117H129.565C130.15 28.8117 130.646 28.6099 131.051 28.2063C131.478 27.8027 131.704 27.3094 131.726 26.7265V8.06054C131.704 7.47758 131.478 6.98431 131.051 6.58072C130.646 6.15471 130.15 5.9417 129.565 5.9417H129.126V5.60538H138.243C140.292 5.60538 141.902 6.17713 143.072 7.32063C144.243 8.4417 144.828 9.91032 144.828 11.7265C144.828 13.5202 144.265 15.0785 143.14 16.4013C142.037 17.7018 140.686 18.352 139.088 18.352C139.425 18.509 139.819 18.8229 140.27 19.2937C140.742 19.7422 141.159 20.213 141.519 20.7063C143.455 23.4641 144.716 25.1682 145.301 25.8184C145.886 26.4462 146.303 26.8834 146.551 27.13C146.798 27.3543 147.068 27.5785 147.361 27.8027C147.654 28.0269 147.946 28.2063 148.239 28.3408C148.892 28.6547 150.214 28.8117 150.957 28.8117V29.148H148.475C147.507 29.148 146.607 28.9798 145.774 28.6435C144.941 28.2848 144.311 27.926 143.883 27.5673C143.478 27.1861 143.117 26.8274 142.802 26.491C142.51 26.1323 141.677 24.9664 140.303 22.9933C138.93 21.0202 138.131 19.8991 137.906 19.63C137.681 19.3386 137.444 19.0583 137.197 18.7892C136.476 18.0269 135.756 17.6457 135.035 17.6457V17.3094C135.216 17.3318 135.452 17.343 135.745 17.343C136.037 17.343 136.397 17.3318 136.825 17.3094C139.617 17.2422 141.373 16.0762 142.093 13.8117C142.228 13.3632 142.296 12.9484 142.296 12.5673C142.296 12.1637 142.296 11.9058 142.296 11.7937C142.251 10.2915 141.857 9.08072 141.114 8.16144C140.371 7.24215 139.369 6.74888 138.108 6.68161C137.568 6.65919 136.893 6.64798 136.082 6.64798Z" fill="#00BCFF"/>
<path d="M151.396 28.8117C151.981 28.8117 152.476 28.6099 152.882 28.2063C153.309 27.7803 153.534 27.2758 153.557 26.6928V8.02691C153.534 7.44395 153.309 6.95067 152.882 6.54708C152.476 6.1435 151.981 5.9417 151.396 5.9417H150.957V5.60538H158.352V5.9417H157.913C157.328 5.9417 156.821 6.1435 156.394 6.54708C155.988 6.95067 155.774 7.44395 155.752 8.02691V26.6928C155.752 27.2758 155.966 27.7803 156.394 28.2063C156.821 28.6099 157.328 28.8117 157.913 28.8117H158.352V29.148H150.957V28.8117H151.396Z" fill="#00BCFF"/>
<path d="M164.645 8.53139C167.054 6.26682 170.172 5.13453 173.999 5.13453C177.849 5.13453 180.978 6.26682 183.387 8.53139C185.796 10.7735 187 13.722 187 17.3767C187 21.0314 185.796 23.991 183.387 26.2556C180.978 28.4978 177.849 29.6188 173.999 29.6188C170.172 29.6188 167.054 28.4978 164.645 26.2556C162.236 23.991 161.032 21.0314 161.032 17.3767C161.032 13.722 162.236 10.7735 164.645 8.53139ZM166.469 25.5157C168.382 27.5785 170.892 28.6099 173.999 28.6099C177.106 28.6099 179.605 27.5785 181.496 25.5157C183.409 23.4529 184.366 20.7399 184.366 17.3767C184.366 14.0135 183.409 11.3004 181.496 9.23767C179.605 7.17489 177.106 6.1435 173.999 6.1435C170.892 6.1435 168.382 7.17489 166.469 9.23767C164.578 11.3004 163.632 14.0135 163.632 17.3767C163.632 20.7399 164.578 23.4529 166.469 25.5157Z" fill="#00BCFF"/>
<path d="M119.11 20.4709V14.6961C119.11 14.6961 117.281 16.621 115.451 16.621H111.792C109.962 16.621 108.132 14.6961 108.132 14.6961V20.4709C108.132 20.4709 109.962 18.5459 111.792 18.5459H115.451C117.281 18.5459 119.11 20.4709 119.11 20.4709Z" fill="#00BCFF"/>
<path d="M104.202 8.49951C106.551 6.1665 109.592 5 113.324 5C117.079 5 120.131 6.1665 122.48 8.49951C124.829 10.8094 126.004 13.847 126.004 17.6121C126.004 21.3773 124.829 24.4263 122.48 26.7594C120.131 29.0693 117.079 30.2242 113.324 30.2242C109.592 30.2242 106.551 29.0693 104.202 26.7594C101.852 24.4263 100.678 21.3773 100.678 17.6121C100.678 13.847 101.852 10.8094 104.202 8.49951ZM105.98 25.9971C107.846 28.1222 110.294 29.1848 113.324 29.1848C116.354 29.1848 118.792 28.1222 120.636 25.9971C122.502 23.872 123.435 21.077 123.435 17.6121C123.435 14.1472 122.502 11.3523 120.636 9.22714C118.792 7.10202 116.354 6.03946 113.324 6.03946C110.294 6.03946 107.846 7.10202 105.98 9.22714C104.136 11.3523 103.214 14.1472 103.214 17.6121C103.214 21.077 104.136 23.872 105.98 25.9971Z" fill="#00BCFF"/>
</g>
<defs>
<filter id="filter0_d_170_248" x="0" y="0" width="192" height="40" filterUnits="userSpaceOnUse" color-interpolation-filters="sRGB">
<feFlood flood-opacity="0" result="BackgroundImageFix"/>
<feColorMatrix in="SourceAlpha" type="matrix" values="0 0 0 0 0 0 0 0 0 0 0 0 0 0 0 0 0 0 127 0" result="hardAlpha"/>
<feOffset/>
<feGaussianBlur stdDeviation="2.5"/>
<feComposite in2="hardAlpha" operator="out"/>
<feColorMatrix type="matrix" values="0 0 0 0 0 0 0 0 0 0.764706 0 0 0 0 0.815686 0 0 0 1 0"/>
<feBlend mode="normal" in2="BackgroundImageFix" result="effect1_dropShadow_170_248"/>
<feBlend mode="normal" in="SourceGraphic" in2="effect1_dropShadow_170_248" result="shape"/>
</filter>
</defs>
</svg>
