<svg width="192" height="47" viewBox="0 0 192 47" fill="none" xmlns="http://www.w3.org/2000/svg">
<g filter="url(#filter0_d_172_5)">
<path d="M18.1357 12.1348C21.2425 12.1348 23.978 12.8972 26.3418 14.4219L27.0176 19.1641H26.7129C26.0375 16.5633 24.5072 14.7913 22.1211 13.8496C20.9504 13.3788 19.6216 13.1436 18.1357 13.1436C15.0967 13.1436 12.5641 14.1972 10.5381 16.3047C8.53454 18.4123 7.53228 21.0918 7.53223 24.3428C7.53223 27.5715 8.54615 30.2508 10.5723 32.3809C12.5983 34.5108 15.1192 35.5879 18.1357 35.6104C19.599 35.6104 20.995 35.3516 22.3232 34.8359C23.6514 34.3202 24.7889 33.6029 25.7344 32.6836V26.7305C25.7343 26.2374 25.5875 25.8677 25.2949 25.6211C25.0023 25.3521 24.586 25.2178 24.0459 25.2178H23.5049V24.8809H30.124V25.2178H29.6172C29.0544 25.2178 28.6266 25.3521 28.334 25.6211C28.0415 25.8677 27.9063 26.2375 27.9287 26.7305V31.9102C28.0638 35.4527 29.2236 37.9861 31.4072 39.5107C32.9381 40.587 34.9192 41.126 37.3506 41.126C38.3634 41.126 39.4663 41.025 40.6592 40.8232L40.6934 41.1592C38.8924 41.7197 37.2261 42 35.6953 42C32.8364 41.9999 30.4953 41.0915 28.6719 39.2754C27.3212 37.9301 26.4316 36.2375 26.0039 34.1973C23.8652 35.8116 21.2424 36.6191 18.1357 36.6191C15.682 36.6191 13.4421 36.0919 11.416 35.0381C9.41243 33.9619 7.8366 32.4928 6.68848 30.6318C5.56298 28.7709 5 26.6745 5 24.3428C5.00004 22.011 5.5629 19.9146 6.68848 18.0537C7.8366 16.1704 9.41246 14.713 11.416 13.6816C13.4196 12.6503 15.6595 12.1348 18.1357 12.1348ZM113.324 12C117.079 12 120.131 13.167 122.48 15.5C124.829 17.8099 126.004 20.8474 126.004 24.6123C126.004 28.3774 124.83 31.4268 122.48 33.7598C120.131 36.0697 117.079 37.2246 113.324 37.2246C109.592 37.2246 106.55 36.0696 104.201 33.7598C101.852 31.4268 100.678 28.3774 100.678 24.6123C100.678 20.8474 101.852 17.8099 104.201 15.5C106.55 13.167 109.592 12 113.324 12ZM86.3418 12.1348C89.4485 12.1348 92.1841 12.8972 94.5479 14.4219L95.2227 19.1641H94.9189C94.4237 17.236 93.4222 15.756 91.9141 14.7246C90.4282 13.6708 88.5705 13.1436 86.3418 13.1436C83.4829 13.1436 81.1642 14.1747 79.3857 16.2373C77.6298 18.3001 76.752 21.0137 76.752 24.377C76.752 27.7401 77.6298 30.4529 79.3857 32.5156C81.1642 34.5559 83.4828 35.5879 86.3418 35.6104C87.805 35.6104 89.1894 35.3516 90.4951 34.8359C91.8233 34.3202 92.9831 33.6029 93.9736 32.6836V26.7305C93.9735 26.2375 93.816 25.8677 93.501 25.6211C93.2083 25.352 92.7913 25.2178 92.251 25.2178H91.7109V24.8809H98.3301V25.2178H97.8232C97.2604 25.2178 96.8327 25.352 96.54 25.6211C96.2475 25.8677 96.1124 26.2374 96.1348 26.7305V32.2803C95.5494 33.0426 94.8515 33.7267 94.041 34.332C93.2306 34.9374 92.1388 35.4755 90.7656 35.9463C89.4149 36.3947 87.9402 36.6191 86.3418 36.6191C82.7399 36.5967 79.8137 35.4638 77.5625 33.2217C75.3338 30.9796 74.2188 28.0315 74.2188 24.377C74.2188 20.7222 75.3338 17.7734 77.5625 15.5312C79.8137 13.2669 82.74 12.1348 86.3418 12.1348ZM173.999 12.1348C177.849 12.1348 180.978 13.2667 183.387 15.5312C185.796 17.7734 187 20.7222 187 24.377C187 28.0315 185.795 30.9913 183.387 33.2559C180.978 35.4979 177.849 36.6191 173.999 36.6191C170.172 36.6191 167.054 35.4978 164.646 33.2559C162.237 30.9913 161.032 28.0315 161.032 24.377C161.032 20.7222 162.237 17.7734 164.646 15.5312C167.054 13.2668 170.172 12.1348 173.999 12.1348ZM113.324 13.0391C110.294 13.0391 107.847 14.1025 105.98 16.2275C104.136 18.3527 103.214 21.1475 103.214 24.6123C103.214 28.0771 104.136 30.872 105.98 32.9971C107.847 35.122 110.294 36.1845 113.324 36.1846C116.354 36.1846 118.791 35.1222 120.636 32.9971C122.502 30.872 123.436 28.0771 123.436 24.6123C123.436 21.1475 122.502 18.3526 120.636 16.2275C118.791 14.1024 116.354 13.0391 113.324 13.0391ZM69.3018 16.2373H68.9639V15.6318C68.9638 15.0939 68.7723 14.634 68.3896 14.2529C68.0296 13.8721 67.5907 13.6709 67.0732 13.6484H60.1846V24.04H65.8906C66.3408 24.0176 66.7239 23.8499 67.0391 23.5361C67.3542 23.2222 67.5117 22.8293 67.5117 22.3584V21.8877H67.8496V27.2021H67.5117V26.6973C67.5117 26.2489 67.3542 25.8676 67.0391 25.5537C66.7464 25.2399 66.375 25.0722 65.9248 25.0498H60.1846V35.1055H65.0127C66.6786 35.1055 67.9511 34.735 68.8291 33.9951C69.707 33.2552 70.4382 32.1565 71.0234 30.6992H71.3613L69.4033 36.1484H52.9072C51.9393 36.1484 51.0389 35.9798 50.2061 35.6436C49.3733 35.2849 48.7432 34.926 48.3154 34.5674C47.9102 34.1862 47.5495 33.8275 47.2344 33.4912C46.9417 33.1325 46.1086 31.9663 44.7354 29.9932C43.3622 28.0202 42.563 26.8989 42.3379 26.6299C42.1128 26.3385 41.8765 26.0581 41.6289 25.7891C40.9086 25.0268 40.1881 24.6455 39.4678 24.6455V24.3096C39.6478 24.332 39.8842 24.3428 40.1768 24.3428C40.4694 24.3428 40.8301 24.332 41.2578 24.3096C44.0491 24.2422 45.805 23.076 46.5254 20.8115C46.6604 20.3632 46.7275 19.9485 46.7275 19.5674V18.7939C46.6825 17.2917 46.2888 16.0804 45.5459 15.1611C44.8031 14.2421 43.8014 13.749 42.541 13.6816C42.0007 13.6592 41.325 13.6484 40.5146 13.6484H38.3535V33.6924C38.3535 34.2752 38.5559 34.7801 38.9609 35.2061C39.3887 35.6096 39.9068 35.8115 40.5146 35.8115H40.9199L40.9531 36.1484H33.5586V35.8115H33.9971C34.5824 35.8115 35.0782 35.6096 35.4834 35.2061C35.9109 34.8025 36.1357 34.3093 36.1582 33.7266V15.0605C36.1357 14.4778 35.9109 13.9846 35.4834 13.5811C35.0782 13.155 34.5824 12.9414 33.9971 12.9414H33.5586V12.6055H42.6758C44.7244 12.6055 46.3343 13.1768 47.5049 14.3203C48.6755 15.4414 49.2607 16.9104 49.2607 18.7266C49.2607 20.5202 48.6978 22.0785 47.5723 23.4014C46.4692 24.7018 45.1179 25.3516 43.5195 25.3516C43.8572 25.5085 44.2519 25.8231 44.7021 26.2939C45.1747 26.7422 45.5911 27.2129 45.9512 27.7061C47.8872 30.4639 49.1481 32.1681 49.7334 32.8184C50.3185 33.4459 50.7348 33.8832 50.9824 34.1299C51.23 34.3541 51.5004 34.5786 51.793 34.8027C52.0855 35.0269 52.3783 35.2063 52.6709 35.3408C53.3236 35.6547 54.6457 35.8115 55.3887 35.8115H55.8281C56.4134 35.8115 56.9083 35.6096 57.3135 35.2061C57.7412 34.78 57.9667 34.2753 57.9893 33.6924V14.8584C57.9892 14.3205 57.7752 13.8723 57.3477 13.5137C56.9199 13.1325 56.4134 12.9414 55.8281 12.9414H55.4229L55.3887 12.6055H65.2832C65.9811 12.6055 66.7355 12.5378 67.5459 12.4033C68.3788 12.2688 68.9641 12.1345 69.3018 12V16.2373ZM138.243 12.6055C140.292 12.6055 141.902 13.1769 143.072 14.3203C144.243 15.4414 144.828 16.9104 144.828 18.7266C144.828 20.5202 144.265 22.0785 143.14 23.4014C142.037 24.7017 140.686 25.3515 139.088 25.3516C139.426 25.5085 139.819 25.8231 140.27 26.2939C140.742 26.7422 141.158 27.2129 141.519 27.7061C143.454 30.4637 144.715 32.168 145.301 32.8184C145.886 33.4462 146.303 33.8832 146.551 34.1299C146.798 34.3541 147.069 34.5785 147.361 34.8027C147.654 35.0269 147.947 35.2063 148.239 35.3408C148.892 35.6546 150.214 35.8115 150.957 35.8115H151.396C151.981 35.8115 152.477 35.6096 152.882 35.2061C153.309 34.7801 153.534 34.2752 153.557 33.6924V15.0273C153.534 14.4444 153.31 13.9505 152.882 13.5469C152.477 13.1433 151.981 12.9414 151.396 12.9414H150.957V12.6055H158.353V12.9414H157.913C157.328 12.9414 156.821 13.1434 156.394 13.5469C155.988 13.9505 155.774 14.4444 155.752 15.0273V33.6924C155.752 34.2753 155.966 34.7801 156.394 35.2061C156.821 35.6096 157.328 35.8115 157.913 35.8115H158.353V36.1484H148.476C147.508 36.1484 146.606 35.9799 145.773 35.6436C144.941 35.2849 144.31 34.9261 143.883 34.5674C143.478 34.1862 143.117 33.8275 142.802 33.4912C142.509 33.1323 141.677 31.966 140.304 29.9932C138.931 28.0204 138.132 26.8992 137.906 26.6299C137.681 26.3384 137.444 26.0581 137.196 25.7891C136.476 25.0269 135.755 24.6455 135.035 24.6455V24.3096C135.215 24.332 135.452 24.3428 135.744 24.3428C136.037 24.3428 136.397 24.332 136.825 24.3096C139.617 24.2423 141.372 23.0761 142.093 20.8115C142.228 20.3632 142.296 19.9485 142.296 19.5674V18.7939C142.251 17.2917 141.857 16.0804 141.114 15.1611C140.371 14.2419 139.369 13.7489 138.108 13.6816C137.568 13.6592 136.892 13.6484 136.082 13.6484H133.921V33.6924C133.921 34.2753 134.124 34.78 134.529 35.2061C134.957 35.6095 135.474 35.8115 136.082 35.8115H136.487L136.521 36.1484H129.126V35.8115H129.564C130.15 35.8115 130.646 35.6096 131.051 35.2061C131.478 34.8025 131.704 34.3094 131.727 33.7266V15.0605C131.704 14.4777 131.478 13.9846 131.051 13.5811C130.646 13.155 130.15 12.9414 129.564 12.9414H129.126V12.6055H138.243ZM173.999 13.1436C170.892 13.1436 168.382 14.1747 166.469 16.2373C164.578 18.3001 163.632 21.0137 163.632 24.377C163.632 27.74 164.578 30.4529 166.469 32.5156C168.382 34.5784 170.892 35.6103 173.999 35.6104C177.106 35.6104 179.605 34.5784 181.496 32.5156C183.409 30.4529 184.366 27.7399 184.366 24.377C184.366 21.0137 183.41 18.3001 181.496 16.2373C179.605 14.1745 177.106 13.1436 173.999 13.1436ZM119.11 27.4707C119.1 27.4603 117.276 25.5461 115.451 25.5459H111.792C109.962 25.5459 108.132 27.4707 108.132 27.4707V21.6963C108.132 21.6963 109.962 23.6211 111.792 23.6211H115.451C117.275 23.6209 119.098 21.709 119.11 21.6963V27.4707ZM116 5C116 5 117.5 6 119 6.5C117.5 7.5 117 7.5 116 9C115.383 8.97208 115.5 8.5 114.5 8.5C115.5 7.5 116 5 116 5Z" fill="#C27AFF"/>
</g>
<defs>
<filter id="filter0_d_172_5" x="0" y="0" width="192" height="47" filterUnits="userSpaceOnUse" color-interpolation-filters="sRGB">
<feFlood flood-opacity="0" result="BackgroundImageFix"/>
<feColorMatrix in="SourceAlpha" type="matrix" values="0 0 0 0 0 0 0 0 0 0 0 0 0 0 0 0 0 0 127 0" result="hardAlpha"/>
<feOffset/>
<feGaussianBlur stdDeviation="2.5"/>
<feComposite in2="hardAlpha" operator="out"/>
<feColorMatrix type="matrix" values="0 0 0 0 0.760784 0 0 0 0 0.478431 0 0 0 0 1 0 0 0 1 0"/>
<feBlend mode="normal" in2="BackgroundImageFix" result="effect1_dropShadow_172_5"/>
<feBlend mode="normal" in="SourceGraphic" in2="effect1_dropShadow_172_5" result="shape"/>
</filter>
</defs>
</svg>
