<svg width="500" height="500" viewBox="0 0 500 500" fill="none" xmlns="http://www.w3.org/2000/svg">
<rect x="22" y="22" width="456" height="456" rx="24" fill="#08030D"/>
<rect x="26.5" y="26.5" width="447" height="447" rx="19.5" stroke="url(#paint0_linear_108_2)" stroke-opacity="0.7" stroke-width="9"/>
<rect x="26.5" y="26.5" width="447" height="447" rx="19.5" stroke="url(#paint1_linear_108_2)" stroke-opacity="0.7" stroke-width="9"/>
<g filter="url(#filter0_f_108_2)">
<path d="M77.8727 425.815C75.8362 425.815 74.1853 424.167 74.1853 422.135V265.484C74.1853 263.451 75.8362 261.804 77.8727 261.804H100.624C101.854 261.804 103.003 262.416 103.688 263.436L167.388 358.336C168.249 359.742 169.344 361.655 170.675 364.076C170.867 364.397 171.055 364.713 171.239 365.026C171.806 365.991 173.681 365.427 173.609 364.311C173.531 361.811 173.492 359.82 173.492 358.336V265.484C173.492 263.451 175.143 261.804 177.179 261.804H200.089C202.126 261.804 203.777 263.451 203.777 265.484V422.135C203.777 424.167 202.126 425.815 200.089 425.815H178.616C177.393 425.815 176.25 425.21 175.564 424.2L110.574 328.58C109.713 327.252 108.579 325.378 107.17 322.956C107 322.647 106.833 322.342 106.67 322.04C106.103 320.996 104.195 321.535 104.236 322.722C104.314 324.987 104.353 326.94 104.353 328.58V422.135C104.353 424.167 102.702 425.815 100.665 425.815H77.8727Z" fill="#2F80ED"/>
<path d="M181.992 425.815C179.956 425.815 178.305 424.167 178.305 422.135V265.484C178.305 263.451 179.956 261.804 181.992 261.804H244.115C257.496 261.804 268.061 263.952 275.808 268.247C283.556 272.465 289.073 277.971 292.359 284.765C295.646 291.482 297.29 298.511 297.29 305.852C297.29 313.194 295.685 319.911 292.477 326.002C290.569 329.577 287.943 332.669 284.598 335.278C281.981 337.319 282.181 342.117 284.992 343.882C287.39 345.388 289.533 347.121 291.42 349.081C295.333 352.986 298.189 357.438 299.989 362.436C301.867 367.357 302.807 372.355 302.807 377.431C302.807 383.211 301.828 388.99 299.872 394.77C297.994 400.471 294.903 405.665 290.599 410.351C286.295 415.037 280.582 418.786 273.461 421.597C266.418 424.409 257.731 425.815 247.401 425.815H181.992ZM203.617 393.667C203.617 395.699 205.268 397.347 207.305 397.347H249.397C255.266 397.347 259.844 396.332 263.131 394.301C266.496 392.271 268.844 389.732 270.174 386.686C271.582 383.562 272.287 380.477 272.287 377.431C272.287 373.683 271.465 370.129 269.822 366.771C268.257 363.334 265.322 360.523 261.018 358.336C256.792 356.149 250.649 355.056 242.589 355.056H207.305C205.268 355.056 203.617 356.703 203.617 358.736V393.667ZM203.617 324.079C203.617 326.112 205.268 327.76 207.305 327.76H240.358C249.28 327.76 255.853 326.041 260.079 322.605C264.383 319.09 266.535 314.443 266.535 308.664C266.535 305.696 265.987 302.807 264.892 299.995C263.796 297.105 261.683 294.723 258.553 292.849C255.423 290.974 250.806 290.037 244.702 290.037H207.305C205.268 290.037 203.617 291.685 203.617 293.717V324.079Z" fill="#2F80ED"/>
</g>
<g filter="url(#filter1_d_108_2)">
<path d="M77.8727 425.815C75.8362 425.815 74.1853 424.167 74.1853 422.135V265.484C74.1853 263.451 75.8362 261.804 77.8727 261.804H100.624C101.854 261.804 103.003 262.416 103.688 263.436L167.388 358.336C168.249 359.742 169.344 361.655 170.675 364.076C170.867 364.397 171.055 364.713 171.239 365.026C171.806 365.991 173.681 365.427 173.609 364.311C173.531 361.811 173.492 359.82 173.492 358.336V265.484C173.492 263.451 175.143 261.804 177.179 261.804H200.089C202.126 261.804 203.777 263.451 203.777 265.484V422.135C203.777 424.167 202.126 425.815 200.089 425.815H178.616C177.393 425.815 176.25 425.21 175.564 424.2L110.574 328.58C109.713 327.252 108.579 325.378 107.17 322.956C107 322.647 106.833 322.342 106.67 322.04C106.103 320.996 104.195 321.535 104.236 322.722C104.314 324.987 104.353 326.94 104.353 328.58V422.135C104.353 424.167 102.702 425.815 100.665 425.815H77.8727Z" fill="#EDE8F1"/>
<path d="M181.992 425.815C179.956 425.815 178.305 424.167 178.305 422.135V265.484C178.305 263.451 179.956 261.804 181.992 261.804H244.115C257.496 261.804 268.061 263.952 275.808 268.247C283.556 272.465 289.073 277.971 292.359 284.765C295.646 291.482 297.29 298.511 297.29 305.852C297.29 313.194 295.685 319.911 292.477 326.002C290.569 329.577 287.943 332.669 284.598 335.278C281.981 337.319 282.181 342.117 284.992 343.882C287.39 345.388 289.533 347.121 291.42 349.081C295.333 352.986 298.189 357.438 299.989 362.436C301.867 367.357 302.807 372.355 302.807 377.431C302.807 383.211 301.828 388.99 299.872 394.77C297.994 400.471 294.903 405.665 290.599 410.351C286.295 415.037 280.582 418.786 273.461 421.597C266.418 424.409 257.731 425.815 247.401 425.815H181.992ZM203.617 393.667C203.617 395.699 205.268 397.347 207.305 397.347H249.397C255.266 397.347 259.844 396.332 263.131 394.301C266.496 392.271 268.844 389.732 270.174 386.686C271.582 383.562 272.287 380.477 272.287 377.431C272.287 373.683 271.465 370.129 269.822 366.771C268.257 363.334 265.322 360.523 261.018 358.336C256.792 356.149 250.649 355.056 242.589 355.056H207.305C205.268 355.056 203.617 356.703 203.617 358.736V393.667ZM203.617 324.079C203.617 326.112 205.268 327.76 207.305 327.76H240.358C249.28 327.76 255.853 326.041 260.079 322.605C264.383 319.09 266.535 314.443 266.535 308.664C266.535 305.696 265.987 302.807 264.892 299.995C263.796 297.105 261.683 294.723 258.553 292.849C255.423 290.974 250.806 290.037 244.702 290.037H207.305C205.268 290.037 203.617 291.685 203.617 293.717V324.079Z" fill="#EDE8F1"/>
</g>
<g filter="url(#filter2_f_108_2)">
<path d="M77.8727 425.815C75.8362 425.815 74.1853 424.167 74.1853 422.135V265.484C74.1853 263.451 75.8362 261.804 77.8727 261.804H100.624C101.854 261.804 103.003 262.416 103.688 263.436L167.388 358.336C168.249 359.742 169.344 361.655 170.675 364.076C170.867 364.397 171.055 364.713 171.239 365.026C171.806 365.991 173.681 365.427 173.609 364.311C173.531 361.811 173.492 359.82 173.492 358.336V265.484C173.492 263.451 175.143 261.804 177.179 261.804H200.089C202.126 261.804 203.777 263.451 203.777 265.484V422.135C203.777 424.167 202.126 425.815 200.089 425.815H178.616C177.393 425.815 176.25 425.21 175.564 424.2L110.574 328.58C109.713 327.252 108.579 325.378 107.17 322.956C107 322.647 106.833 322.342 106.67 322.04C106.103 320.996 104.195 321.535 104.236 322.722C104.314 324.987 104.353 326.94 104.353 328.58V422.135C104.353 424.167 102.702 425.815 100.665 425.815H77.8727Z" fill="#9B51E0"/>
<path d="M181.992 425.815C179.956 425.815 178.305 424.167 178.305 422.135V265.484C178.305 263.451 179.956 261.804 181.992 261.804H244.115C257.496 261.804 268.061 263.952 275.808 268.247C283.556 272.465 289.073 277.971 292.359 284.765C295.646 291.482 297.29 298.511 297.29 305.852C297.29 313.194 295.685 319.911 292.477 326.002C290.569 329.577 287.943 332.669 284.598 335.278C281.981 337.319 282.181 342.117 284.992 343.881C287.39 345.388 289.533 347.121 291.42 349.081C295.333 352.986 298.189 357.438 299.989 362.436C301.867 367.357 302.807 372.355 302.807 377.431C302.807 383.211 301.828 388.99 299.872 394.77C297.994 400.471 294.903 405.665 290.599 410.351C286.295 415.037 280.582 418.786 273.461 421.597C266.418 424.409 257.731 425.815 247.401 425.815H181.992ZM203.617 393.667C203.617 395.699 205.268 397.347 207.305 397.347H249.397C255.266 397.347 259.844 396.332 263.131 394.301C266.496 392.271 268.844 389.732 270.174 386.686C271.583 383.562 272.287 380.477 272.287 377.431C272.287 373.683 271.465 370.129 269.822 366.771C268.257 363.334 265.322 360.523 261.018 358.336C256.792 356.149 250.649 355.056 242.589 355.056H207.305C205.268 355.056 203.617 356.703 203.617 358.736V393.667ZM203.617 324.079C203.617 326.112 205.268 327.76 207.305 327.76H240.358C249.28 327.76 255.853 326.041 260.079 322.605C264.383 319.09 266.535 314.443 266.535 308.664C266.535 305.696 265.987 302.807 264.892 299.995C263.796 297.105 261.683 294.723 258.553 292.849C255.423 290.974 250.806 290.037 244.702 290.037H207.305C205.268 290.037 203.617 291.685 203.617 293.717V324.079Z" fill="#9B51E0"/>
<path d="M167.809 358.066L167.814 358.075C168.68 359.489 169.778 361.407 171.108 363.827C171.3 364.146 171.487 364.461 171.67 364.773C171.789 364.974 172.103 365.096 172.519 364.97C172.936 364.844 173.125 364.572 173.11 364.343L173.11 364.335L173.11 364.326C173.031 361.825 172.992 359.827 172.992 358.336V265.484C172.992 263.174 174.868 261.304 177.179 261.304H181.992H200.089H244.115C257.54 261.304 268.199 263.457 276.049 267.809C283.871 272.067 289.469 277.643 292.809 284.546C296.128 291.33 297.79 298.434 297.79 305.852C297.79 313.27 296.168 320.067 292.919 326.235L292.918 326.238C290.976 329.877 288.303 333.023 284.905 335.672C283.754 336.57 283.19 338.107 283.259 339.661C283.328 341.215 284.024 342.684 285.258 343.458C287.688 344.984 289.862 346.742 291.777 348.731C295.737 352.684 298.633 357.195 300.458 362.262C302.356 367.236 303.307 372.293 303.307 377.431C303.307 383.268 302.319 389.1 300.346 394.928L167.809 358.066ZM167.809 358.066L167.803 358.057M167.809 358.066L167.803 358.057M167.803 358.057L104.103 263.157C103.325 261.999 102.02 261.304 100.624 261.304H77.8727C75.561 261.304 73.6853 263.174 73.6853 265.484V422.135C73.6853 424.444 75.561 426.315 77.8727 426.315H100.665C102.977 426.315 104.853 424.444 104.853 422.135V328.58C104.853 326.932 104.814 324.974 104.735 322.705C104.726 322.424 104.948 322.141 105.36 322.026C105.772 321.91 106.099 322.036 106.23 322.278C106.394 322.581 106.562 322.887 106.732 323.197L106.732 323.197L106.738 323.208C108.148 325.632 109.287 327.514 110.155 328.852L110.155 328.852M167.803 358.057L110.155 328.852M110.155 328.852L110.161 328.861M110.155 328.852L110.161 328.861M110.161 328.861L175.151 424.482C175.93 425.628 177.228 426.315 178.616 426.315H181.992L110.161 328.861Z" stroke="#3E97E9"/>
</g>
<path d="M77.8727 425.815C75.8362 425.815 74.1853 424.167 74.1853 422.135V265.484C74.1853 263.451 75.8362 261.804 77.8727 261.804H100.624C101.854 261.804 103.003 262.416 103.688 263.436L167.388 358.336C168.249 359.742 169.344 361.655 170.675 364.076C170.867 364.397 171.055 364.713 171.239 365.026C171.806 365.991 173.681 365.427 173.609 364.311C173.531 361.811 173.492 359.82 173.492 358.336V265.484C173.492 263.451 175.143 261.804 177.179 261.804L200.089 261.804C202.126 261.804 203.777 263.451 203.777 265.484V422.135C203.777 424.167 202.126 425.815 200.089 425.815H178.616C177.393 425.815 176.25 425.21 175.564 424.2L110.574 328.58C109.713 327.252 108.579 325.378 107.17 322.956C107 322.647 106.833 322.342 106.67 322.04C106.103 320.996 104.195 321.535 104.236 322.722C104.314 324.987 104.353 326.94 104.353 328.58V422.135C104.353 424.167 102.702 425.815 100.665 425.815H77.8727Z" fill="#08030D"/>
<path d="M178.616 425.815C176.579 425.815 173.609 415.422 173.609 413.39L173.492 265.484C173.492 263.451 175.143 261.804 177.179 261.804L244.115 261.804C257.496 261.804 268.061 263.952 275.808 268.247C283.556 272.465 289.073 277.971 292.359 284.765C295.646 291.482 297.29 298.511 297.29 305.852C297.29 313.194 295.685 319.911 292.477 326.002C290.569 329.577 287.943 332.669 284.598 335.278C281.981 337.319 282.181 342.117 284.992 343.881C287.39 345.388 289.533 347.121 291.42 349.081C295.333 352.986 298.189 357.438 299.989 362.436C301.867 367.357 302.807 372.355 302.807 377.431C302.807 383.211 301.828 388.99 299.872 394.77C297.994 400.471 294.903 405.665 290.599 410.351C286.295 415.037 280.582 418.786 273.461 421.597C266.418 424.409 257.731 425.815 247.401 425.815H178.616ZM203.617 393.667C203.617 395.699 205.268 397.347 207.305 397.347H249.397C255.266 397.347 259.844 396.332 263.131 394.301C266.496 392.271 268.844 389.732 270.174 386.686C271.583 383.562 272.287 380.477 272.287 377.431C272.287 373.683 271.465 370.129 269.822 366.771C268.257 363.334 265.322 360.523 261.018 358.336C256.792 356.149 250.649 355.056 242.589 355.056H207.305C205.268 355.056 203.617 356.703 203.617 358.736V393.667ZM203.617 324.079C203.617 326.112 205.268 327.76 207.305 327.76H240.358C249.28 327.76 255.853 326.041 260.079 322.605C264.383 319.09 266.535 314.443 266.535 308.664C266.535 305.696 265.987 302.807 264.892 299.995C263.796 297.105 261.683 294.723 258.553 292.849C255.423 290.974 250.806 290.037 244.702 290.037H207.305C205.268 290.037 203.617 291.685 203.617 293.717V324.079Z" fill="#08030D"/>
<defs>
<filter id="filter0_f_108_2" x="51.1853" y="238.804" width="274.621" height="210.011" filterUnits="userSpaceOnUse" color-interpolation-filters="sRGB">
<feFlood flood-opacity="0" result="BackgroundImageFix"/>
<feBlend mode="normal" in="SourceGraphic" in2="BackgroundImageFix" result="shape"/>
<feGaussianBlur stdDeviation="11.5" result="effect1_foregroundBlur_108_2"/>
</filter>
<filter id="filter1_d_108_2" x="66.1853" y="253.804" width="244.621" height="180.011" filterUnits="userSpaceOnUse" color-interpolation-filters="sRGB">
<feFlood flood-opacity="0" result="BackgroundImageFix"/>
<feColorMatrix in="SourceAlpha" type="matrix" values="0 0 0 0 0 0 0 0 0 0 0 0 0 0 0 0 0 0 127 0" result="hardAlpha"/>
<feOffset/>
<feGaussianBlur stdDeviation="4"/>
<feComposite in2="hardAlpha" operator="out"/>
<feColorMatrix type="matrix" values="0 0 0 0 0.9375 0 0 0 0 0.015625 0 0 0 0 0.734687 0 0 0 1 0"/>
<feBlend mode="normal" in2="BackgroundImageFix" result="effect1_dropShadow_108_2"/>
<feBlend mode="normal" in="SourceGraphic" in2="effect1_dropShadow_108_2" result="shape"/>
</filter>
<filter id="filter2_f_108_2" x="50.1853" y="237.804" width="276.621" height="212.011" filterUnits="userSpaceOnUse" color-interpolation-filters="sRGB">
<feFlood flood-opacity="0" result="BackgroundImageFix"/>
<feBlend mode="normal" in="SourceGraphic" in2="BackgroundImageFix" result="shape"/>
<feGaussianBlur stdDeviation="11.5" result="effect1_foregroundBlur_108_2"/>
</filter>
<linearGradient id="paint0_linear_108_2" x1="22" y1="22" x2="478" y2="478" gradientUnits="userSpaceOnUse">
<stop stop-color="#3B0198"/>
<stop offset="1" stop-color="#FF1111" stop-opacity="0.5"/>
</linearGradient>
<linearGradient id="paint1_linear_108_2" x1="478" y1="478" x2="22" y2="22" gradientUnits="userSpaceOnUse">
<stop stop-color="#E8862B"/>
<stop offset="1" stop-color="#CB22F5" stop-opacity="0.5"/>
</linearGradient>
</defs>
</svg>
