<svg width="50" height="50" viewBox="0 0 50 50" fill="none" xmlns="http://www.w3.org/2000/svg">
<g clip-path="url(#clip0_413_59)">
<rect width="50" height="50" rx="25" fill="#08030D"/>
<rect x="0.5" y="0.5" width="49" height="49" rx="24.5" stroke="url(#paint0_linear_413_59)" stroke-opacity="0.7"/>
<rect x="0.5" y="0.5" width="49" height="49" rx="24.5" stroke="url(#paint1_linear_413_59)" stroke-opacity="0.7"/>
<g filter="url(#filter0_f_413_59)">
<path d="M10.6017 40.3521C10.3784 40.3521 10.1974 40.1714 10.1974 39.9485V22.7719C10.1974 22.5491 10.3784 22.3684 10.6017 22.3684H13.0964C13.2312 22.3684 13.3572 22.4355 13.4323 22.5473L20.417 32.9531C20.5113 33.1072 20.6315 33.317 20.7774 33.5825C20.7985 33.6176 20.8191 33.6523 20.8392 33.6867C20.9014 33.7925 21.107 33.7306 21.0991 33.6082C21.0905 33.3342 21.0863 33.1158 21.0863 32.9531V22.7719C21.0863 22.5491 21.2673 22.3684 21.4906 22.3684H24.0027C24.226 22.3684 24.407 22.5491 24.407 22.7719V39.9485C24.407 40.1714 24.226 40.3521 24.0027 40.3521H21.6481C21.514 40.3521 21.3887 40.2858 21.3135 40.1751L14.1874 29.6903C14.093 29.5447 13.9686 29.3392 13.8141 29.0737C13.7955 29.0398 13.7772 29.0063 13.7593 28.9733C13.6972 28.8587 13.4879 28.9179 13.4924 29.048C13.5009 29.2964 13.5052 29.5105 13.5052 29.6903V39.9485C13.5052 40.1714 13.3242 40.3521 13.1009 40.3521H10.6017Z" fill="#2F80ED"/>
<path d="M22.0183 40.3521C21.795 40.3521 21.614 40.1714 21.614 39.9485V22.7719C21.614 22.5491 21.795 22.3684 22.0183 22.3684H28.83C30.2973 22.3684 31.4557 22.6039 32.3052 23.0749C33.1546 23.5373 33.7596 24.1411 34.12 24.8861C34.4804 25.6226 34.6606 26.3933 34.6606 27.1983C34.6606 28.0033 34.4846 28.7398 34.1328 29.4077C33.9237 29.7997 33.6357 30.1387 33.2689 30.4248C32.982 30.6486 33.0039 31.1746 33.3121 31.3682C33.5751 31.5333 33.8101 31.7234 34.017 31.9383C34.446 32.3665 34.7592 32.8546 34.9566 33.4027C35.1625 33.9422 35.2655 34.4902 35.2655 35.0469C35.2655 35.6806 35.1582 36.3143 34.9437 36.948C34.7378 37.5732 34.3988 38.1426 33.9269 38.6565C33.455 39.1703 32.8286 39.5813 32.0477 39.8896C31.2755 40.1979 30.323 40.3521 29.1904 40.3521H22.0183ZM24.3895 36.8271C24.3895 37.0499 24.5705 37.2306 24.7938 37.2306H29.4092C30.0527 37.2306 30.5547 37.1193 30.9151 36.8966C31.2841 36.674 31.5415 36.3957 31.6873 36.0617C31.8418 35.7191 31.919 35.3809 31.919 35.0469C31.919 34.6358 31.8289 34.2462 31.6487 33.8779C31.4771 33.5011 31.1553 33.1929 30.6834 32.9531C30.2201 32.7133 29.5465 32.5934 28.6627 32.5934H24.7938C24.5705 32.5934 24.3895 32.7741 24.3895 32.9969V36.8271ZM24.3895 29.1969C24.3895 29.4197 24.5705 29.6004 24.7938 29.6004H28.4181C29.3963 29.6004 30.1171 29.412 30.5804 29.0352C31.0524 28.6498 31.2883 28.1403 31.2883 27.5066C31.2883 27.1812 31.2283 26.8643 31.1082 26.556C30.988 26.2392 30.7563 25.978 30.4131 25.7725C30.0699 25.5669 29.5636 25.4642 28.8943 25.4642H24.7938C24.5705 25.4642 24.3895 25.6448 24.3895 25.8677V29.1969Z" fill="#2F80ED"/>
</g>
<g filter="url(#filter1_d_413_59)">
<path d="M10.6017 40.3521C10.3784 40.3521 10.1974 40.1714 10.1974 39.9485V22.7719C10.1974 22.5491 10.3784 22.3684 10.6017 22.3684H13.0964C13.2312 22.3684 13.3572 22.4355 13.4323 22.5473L20.417 32.9531C20.5113 33.1072 20.6315 33.317 20.7774 33.5825C20.7985 33.6176 20.8191 33.6523 20.8392 33.6867C20.9014 33.7925 21.107 33.7306 21.0991 33.6082C21.0905 33.3342 21.0863 33.1158 21.0863 32.9531V22.7719C21.0863 22.5491 21.2673 22.3684 21.4906 22.3684H24.0027C24.226 22.3684 24.407 22.5491 24.407 22.7719V39.9485C24.407 40.1714 24.226 40.3521 24.0027 40.3521H21.6481C21.514 40.3521 21.3887 40.2858 21.3135 40.1751L14.1874 29.6903C14.093 29.5447 13.9686 29.3392 13.8141 29.0737C13.7955 29.0398 13.7772 29.0063 13.7593 28.9733C13.6972 28.8587 13.4879 28.9179 13.4924 29.048C13.5009 29.2964 13.5052 29.5105 13.5052 29.6903V39.9485C13.5052 40.1714 13.3242 40.3521 13.1009 40.3521H10.6017Z" fill="#EDE8F1"/>
<path d="M22.0183 40.3521C21.795 40.3521 21.614 40.1714 21.614 39.9485V22.7719C21.614 22.5491 21.795 22.3684 22.0183 22.3684H28.83C30.2973 22.3684 31.4557 22.6039 32.3052 23.0749C33.1546 23.5373 33.7596 24.1411 34.12 24.8861C34.4804 25.6226 34.6606 26.3933 34.6606 27.1983C34.6606 28.0033 34.4846 28.7398 34.1328 29.4077C33.9237 29.7997 33.6357 30.1387 33.2689 30.4248C32.982 30.6486 33.0039 31.1746 33.3121 31.3682C33.5751 31.5333 33.8101 31.7234 34.017 31.9383C34.446 32.3665 34.7592 32.8546 34.9566 33.4027C35.1625 33.9422 35.2655 34.4902 35.2655 35.0469C35.2655 35.6806 35.1582 36.3143 34.9437 36.948C34.7378 37.5732 34.3988 38.1426 33.9269 38.6565C33.455 39.1703 32.8286 39.5813 32.0477 39.8896C31.2755 40.1979 30.323 40.3521 29.1904 40.3521H22.0183ZM24.3895 36.8271C24.3895 37.0499 24.5705 37.2306 24.7938 37.2306H29.4092C30.0527 37.2306 30.5547 37.1193 30.9151 36.8966C31.2841 36.674 31.5415 36.3957 31.6873 36.0617C31.8418 35.7191 31.919 35.3809 31.919 35.0469C31.919 34.6358 31.8289 34.2462 31.6487 33.8779C31.4771 33.5011 31.1553 33.1929 30.6834 32.9531C30.2201 32.7133 29.5465 32.5934 28.6627 32.5934H24.7938C24.5705 32.5934 24.3895 32.7741 24.3895 32.9969V36.8271ZM24.3895 29.1969C24.3895 29.4197 24.5705 29.6004 24.7938 29.6004H28.4181C29.3963 29.6004 30.1171 29.412 30.5804 29.0352C31.0524 28.6498 31.2883 28.1403 31.2883 27.5066C31.2883 27.1812 31.2283 26.8643 31.1082 26.556C30.988 26.2392 30.7563 25.978 30.4131 25.7725C30.0699 25.5669 29.5636 25.4642 28.8943 25.4642H24.7938C24.5705 25.4642 24.3895 25.6448 24.3895 25.8677V29.1969Z" fill="#EDE8F1"/>
</g>
<g filter="url(#filter2_f_413_59)">
<path d="M10.6017 40.3521C10.3784 40.3521 10.1974 40.1714 10.1974 39.9485V22.7719C10.1974 22.5491 10.3784 22.3684 10.6017 22.3684H13.0964C13.2312 22.3684 13.3572 22.4355 13.4323 22.5473L20.417 32.9531C20.5113 33.1072 20.6315 33.317 20.7774 33.5825C20.7985 33.6176 20.8191 33.6523 20.8392 33.6867C20.9014 33.7925 21.107 33.7306 21.0991 33.6082C21.0905 33.3342 21.0863 33.1158 21.0863 32.9531V22.7719C21.0863 22.5491 21.2673 22.3684 21.4906 22.3684H24.0027C24.226 22.3684 24.407 22.5491 24.407 22.7719V39.9485C24.407 40.1714 24.226 40.3521 24.0027 40.3521H21.6481C21.514 40.3521 21.3887 40.2858 21.3135 40.1751L14.1874 29.6903C14.093 29.5447 13.9686 29.3392 13.8141 29.0737C13.7955 29.0398 13.7772 29.0063 13.7593 28.9733C13.6972 28.8587 13.4879 28.9179 13.4924 29.0481C13.5009 29.2964 13.5052 29.5105 13.5052 29.6903V39.9485C13.5052 40.1714 13.3242 40.3521 13.1009 40.3521H10.6017Z" fill="#9B51E0"/>
<path d="M22.0183 40.3521C21.795 40.3521 21.614 40.1714 21.614 39.9485V22.7719C21.614 22.5491 21.795 22.3684 22.0183 22.3684H28.83C30.2973 22.3684 31.4557 22.6039 32.3052 23.0749C33.1546 23.5373 33.7596 24.1411 34.12 24.8861C34.4804 25.6226 34.6606 26.3933 34.6606 27.1983C34.6606 28.0033 34.4846 28.7398 34.1328 29.4077C33.9237 29.7997 33.6357 30.1387 33.2689 30.4248C32.982 30.6486 33.0039 31.1746 33.3121 31.3682C33.5751 31.5333 33.8101 31.7234 34.017 31.9383C34.446 32.3665 34.7592 32.8546 34.9566 33.4027C35.1625 33.9422 35.2655 34.4902 35.2655 35.0469C35.2655 35.6806 35.1582 36.3143 34.9437 36.948C34.7378 37.5732 34.3988 38.1426 33.9269 38.6565C33.455 39.1703 32.8286 39.5813 32.0477 39.8896C31.2755 40.1979 30.323 40.3521 29.1904 40.3521H22.0183ZM24.3895 36.8271C24.3895 37.0499 24.5705 37.2306 24.7938 37.2306H29.4092C30.0527 37.2306 30.5547 37.1193 30.9151 36.8966C31.2841 36.674 31.5415 36.3957 31.6873 36.0617C31.8418 35.7191 31.919 35.3809 31.919 35.0469C31.919 34.6358 31.8289 34.2462 31.6487 33.8779C31.4771 33.5011 31.1553 33.1929 30.6834 32.9531C30.2201 32.7133 29.5465 32.5934 28.6627 32.5934H24.7938C24.5705 32.5934 24.3895 32.7741 24.3895 32.9969V36.8271ZM24.3895 29.1969C24.3895 29.4197 24.5705 29.6004 24.7938 29.6004H28.4181C29.3963 29.6004 30.1171 29.412 30.5804 29.0352C31.0524 28.6498 31.2883 28.1403 31.2883 27.5066C31.2883 27.1812 31.2283 26.8643 31.1082 26.556C30.988 26.2392 30.7563 25.978 30.4131 25.7725C30.0699 25.5669 29.5636 25.4642 28.8943 25.4642H24.7938C24.5705 25.4642 24.3895 25.6448 24.3895 25.8677V29.1969Z" fill="#9B51E0"/>
<path d="M20.5863 32.3081L13.8474 22.2687C13.6793 22.0183 13.3976 21.8684 13.0964 21.8684H10.6017C10.1032 21.8684 9.69737 22.272 9.69737 22.7719V39.9485C9.69737 40.4485 10.1032 40.8521 10.6017 40.8521H13.1009C13.5994 40.8521 14.0052 40.4485 14.0052 39.9485V30.3118L20.8999 40.4561L21.173 40.2705L20.8999 40.4561C21.0684 40.704 21.3487 40.8521 21.6481 40.8521H22.0183H24.0027H29.1904C30.3646 40.8521 31.384 40.6928 32.2322 40.3543C33.0689 40.0239 33.7629 39.5742 34.2951 38.9947C34.8118 38.4322 35.1885 37.8022 35.418 37.1062C35.6486 36.4245 35.7655 35.7374 35.7655 35.0469C35.7655 34.4286 35.6511 33.8216 35.4254 33.2287C35.2025 32.6118 34.8498 32.064 34.3737 31.5879C34.1397 31.3454 33.8756 31.1321 33.5829 30.9478C33.5823 30.9467 33.5813 30.9452 33.5802 30.943C33.5745 30.9318 33.568 30.9118 33.5669 30.8857C33.5657 30.8596 33.5703 30.8381 33.5756 30.8248C33.5773 30.8207 33.5787 30.818 33.5796 30.8166C33.9974 30.4901 34.331 30.0986 34.574 29.6431L34.5752 29.6407C34.9674 28.8962 35.1606 28.0789 35.1606 27.1983C35.1606 26.316 34.9624 25.4705 34.5695 24.6672C34.1565 23.8141 33.4699 23.14 32.5459 22.6367C31.594 22.1094 30.3413 21.8684 28.83 21.8684H24.0027H22.0183H21.4906C20.9921 21.8684 20.5863 22.272 20.5863 22.7719V32.3081ZM29.4092 36.7306H24.907V33.0934H28.6627C29.515 33.0934 30.0945 33.2113 30.4536 33.3971L30.4569 33.3988C30.8564 33.6018 31.0808 33.8373 31.1937 34.0852L31.1935 34.0853L31.1996 34.0977C31.3462 34.3973 31.419 34.7118 31.419 35.0469C31.419 35.3016 31.3605 35.5701 31.2315 35.8562L31.2315 35.8561L31.2291 35.8615C31.1318 36.0844 30.9537 36.2893 30.6568 36.4685L30.6567 36.4685L30.6523 36.4713C30.4018 36.626 30.0046 36.7306 29.4092 36.7306ZM24.907 29.1004V25.9642H28.8943C29.5272 25.9642 29.9267 26.064 30.1562 26.2014C30.4211 26.36 30.5673 26.5398 30.6406 26.7333L30.6406 26.7333L30.6423 26.7376C30.7402 26.989 30.7883 27.2443 30.7883 27.5066C30.7883 27.9969 30.6147 28.3615 30.2647 28.6475C29.9317 28.9181 29.349 29.1004 28.4181 29.1004H24.907Z" stroke="#3E97E9"/>
</g>
<path d="M10.6017 40.3521C10.3784 40.3521 10.1974 40.1714 10.1974 39.9485V22.7719C10.1974 22.5491 10.3784 22.3684 10.6017 22.3684H13.0964C13.2312 22.3684 13.3572 22.4355 13.4323 22.5473L20.417 32.9531C20.5113 33.1072 20.6315 33.317 20.7774 33.5825C20.7985 33.6176 20.8191 33.6523 20.8392 33.6867C20.9014 33.7925 21.107 33.7306 21.0991 33.6082C21.0905 33.3342 21.0863 33.1158 21.0863 32.9531V22.7719C21.0863 22.5491 21.2673 22.3684 21.4906 22.3684L24.0027 22.3684C24.226 22.3684 24.407 22.5491 24.407 22.7719V39.9485C24.407 40.1714 24.226 40.3521 24.0027 40.3521H21.6481C21.514 40.3521 21.3887 40.2858 21.3135 40.1751L14.1874 29.6903C14.093 29.5447 13.9686 29.3392 13.8141 29.0737C13.7955 29.0398 13.7772 29.0063 13.7593 28.9733C13.6972 28.8587 13.4879 28.9179 13.4924 29.0481C13.5009 29.2964 13.5052 29.5105 13.5052 29.6903V39.9485C13.5052 40.1714 13.3242 40.3521 13.1009 40.3521H10.6017Z" fill="#08030D"/>
<path d="M21.6481 40.3521C21.4248 40.3521 21.0991 39.2125 21.0991 38.9897L21.0863 22.7719C21.0863 22.5491 21.2673 22.3684 21.4906 22.3684L28.83 22.3684C30.2973 22.3684 31.4557 22.6039 32.3052 23.0749C33.1546 23.5373 33.7596 24.1411 34.12 24.8861C34.4804 25.6226 34.6606 26.3933 34.6606 27.1983C34.6606 28.0033 34.4846 28.7398 34.1328 29.4077C33.9237 29.7997 33.6357 30.1387 33.2689 30.4248C32.982 30.6486 33.0039 31.1746 33.3121 31.3682C33.5751 31.5333 33.8101 31.7234 34.017 31.9383C34.446 32.3665 34.7592 32.8546 34.9566 33.4027C35.1625 33.9422 35.2655 34.4902 35.2655 35.0469C35.2655 35.6806 35.1582 36.3143 34.9437 36.948C34.7378 37.5732 34.3988 38.1426 33.9269 38.6565C33.455 39.1703 32.8286 39.5813 32.0477 39.8896C31.2755 40.1979 30.323 40.3521 29.1904 40.3521H21.6481ZM24.3895 36.8271C24.3895 37.0499 24.5705 37.2306 24.7938 37.2306H29.4092C30.0527 37.2306 30.5547 37.1193 30.9151 36.8966C31.2841 36.674 31.5415 36.3957 31.6873 36.0617C31.8418 35.7191 31.919 35.3809 31.919 35.0469C31.919 34.6358 31.8289 34.2462 31.6487 33.8779C31.4771 33.5011 31.1553 33.1929 30.6834 32.9531C30.2201 32.7133 29.5465 32.5934 28.6627 32.5934H24.7938C24.5705 32.5934 24.3895 32.7741 24.3895 32.9969V36.8271ZM24.3895 29.1969C24.3895 29.4197 24.5705 29.6004 24.7938 29.6004H28.4181C29.3963 29.6004 30.1171 29.412 30.5804 29.0352C31.0524 28.6498 31.2883 28.1403 31.2883 27.5066C31.2883 27.1812 31.2283 26.8643 31.1082 26.556C30.988 26.2392 30.7563 25.978 30.4131 25.7725C30.0699 25.5669 29.5636 25.4642 28.8943 25.4642H24.7938C24.5705 25.4642 24.3895 25.6448 24.3895 25.8677V29.1969Z" fill="#08030D"/>
</g>
<defs>
<filter id="filter0_f_413_59" x="4.19737" y="16.3684" width="37.0681" height="29.9836" filterUnits="userSpaceOnUse" color-interpolation-filters="sRGB">
<feFlood flood-opacity="0" result="BackgroundImageFix"/>
<feBlend mode="normal" in="SourceGraphic" in2="BackgroundImageFix" result="shape"/>
<feGaussianBlur stdDeviation="3" result="effect1_foregroundBlur_413_59"/>
</filter>
<filter id="filter1_d_413_59" x="6.19737" y="18.3684" width="33.0681" height="25.9836" filterUnits="userSpaceOnUse" color-interpolation-filters="sRGB">
<feFlood flood-opacity="0" result="BackgroundImageFix"/>
<feColorMatrix in="SourceAlpha" type="matrix" values="0 0 0 0 0 0 0 0 0 0 0 0 0 0 0 0 0 0 127 0" result="hardAlpha"/>
<feOffset/>
<feGaussianBlur stdDeviation="2"/>
<feComposite in2="hardAlpha" operator="out"/>
<feColorMatrix type="matrix" values="0 0 0 0 0.9375 0 0 0 0 0.015625 0 0 0 0 0.734687 0 0 0 1 0"/>
<feBlend mode="normal" in2="BackgroundImageFix" result="effect1_dropShadow_413_59"/>
<feBlend mode="normal" in="SourceGraphic" in2="effect1_dropShadow_413_59" result="shape"/>
</filter>
<filter id="filter2_f_413_59" x="-2.80263" y="9.36841" width="51.0681" height="43.9836" filterUnits="userSpaceOnUse" color-interpolation-filters="sRGB">
<feFlood flood-opacity="0" result="BackgroundImageFix"/>
<feBlend mode="normal" in="SourceGraphic" in2="BackgroundImageFix" result="shape"/>
<feGaussianBlur stdDeviation="6" result="effect1_foregroundBlur_413_59"/>
</filter>
<linearGradient id="paint0_linear_413_59" x1="8.16886" y1="7.67544" x2="42.9825" y2="41.5022" gradientUnits="userSpaceOnUse">
<stop stop-color="#3B0198"/>
<stop offset="1" stop-color="#FF1111" stop-opacity="0.5"/>
</linearGradient>
<linearGradient id="paint1_linear_413_59" x1="41.557" y1="42.7632" x2="7.73026" y2="8.49781" gradientUnits="userSpaceOnUse">
<stop stop-color="#E8862B"/>
<stop offset="1" stop-color="#CB22F5" stop-opacity="0.5"/>
</linearGradient>
<clipPath id="clip0_413_59">
<rect width="50" height="50" fill="white"/>
</clipPath>
</defs>
</svg>
