<svg width="52" height="52" viewBox="0 0 52 52" fill="none" xmlns="http://www.w3.org/2000/svg">
<rect x="2" width="50" height="50" rx="4" fill="#08030D"/>
<rect x="2.5" y="0.5" width="49" height="49" rx="3.5" stroke="url(#paint0_linear_607_81)" stroke-opacity="0.7"/>
<rect x="2.5" y="0.5" width="49" height="49" rx="3.5" stroke="url(#paint1_linear_607_81)" stroke-opacity="0.7"/>
<g filter="url(#filter0_f_607_81)">
<path d="M8.12637 44.278C7.90307 44.278 7.72205 44.0973 7.72205 43.8744V26.6978C7.72205 26.475 7.90307 26.2943 8.12637 26.2943H10.621C10.7559 26.2943 10.8819 26.3614 10.9569 26.4732L17.9416 36.879C18.036 37.0331 18.1562 37.2429 18.302 37.5084C18.3231 37.5435 18.3438 37.5782 18.3639 37.6126C18.426 37.7184 18.6317 37.6565 18.6238 37.5341C18.6152 37.2601 18.6109 37.0417 18.6109 36.879V26.6978C18.6109 26.475 18.792 26.2943 19.0153 26.2943H21.5273C21.7506 26.2943 21.9317 26.475 21.9317 26.6978V43.8744C21.9317 44.0973 21.7506 44.278 21.5273 44.278H19.1728C19.0387 44.278 18.9134 44.2117 18.8381 44.101L11.7121 33.6162C11.6177 33.4706 11.4933 33.2651 11.3388 32.9996C11.3202 32.9657 11.3019 32.9322 11.284 32.8992C11.2218 32.7846 11.0125 32.8438 11.017 32.974C11.0256 33.2223 11.0299 33.4364 11.0299 33.6162V43.8744C11.0299 44.0973 10.8489 44.278 10.6256 44.278H8.12637Z" fill="#2F80ED"/>
<path d="M19.543 44.278C19.3197 44.278 19.1386 44.0973 19.1386 43.8744V26.6978C19.1386 26.475 19.3197 26.2943 19.543 26.2943H26.3547C27.822 26.2943 28.9803 26.5298 29.8298 27.0008C30.6793 27.4632 31.2843 28.067 31.6446 28.812C32.005 29.5485 32.1852 30.3192 32.1852 31.1242C32.1852 31.9292 32.0093 32.6657 31.6575 33.3336C31.4484 33.7256 31.1604 34.0646 30.7936 34.3507C30.5067 34.5745 30.5286 35.1005 30.8368 35.2941C31.0998 35.4592 31.3348 35.6493 31.5417 35.8642C31.9707 36.2924 32.2839 36.7805 32.4813 37.3286C32.6872 37.8681 32.7902 38.4162 32.7902 38.9728C32.7902 39.6065 32.6829 40.2402 32.4684 40.8739C32.2625 41.4991 31.9235 42.0685 31.4516 42.5824C30.9796 43.0962 30.3533 43.5072 29.5724 43.8155C28.8001 44.1238 27.8477 44.278 26.715 44.278H19.543ZM21.9142 40.753C21.9142 40.9759 22.0952 41.1565 22.3185 41.1565H26.9339C27.5774 41.1565 28.0794 41.0452 28.4398 40.8225C28.8087 40.5999 29.0662 40.3216 29.212 39.9876C29.3665 39.645 29.4437 39.3068 29.4437 38.9728C29.4437 38.5617 29.3536 38.1721 29.1734 37.8038C29.0018 37.427 28.68 37.1188 28.2081 36.879C27.7447 36.6392 27.0711 36.5193 26.1873 36.5193H22.3185C22.0952 36.5193 21.9142 36.7 21.9142 36.9228V40.753ZM21.9142 33.1228C21.9142 33.3456 22.0952 33.5263 22.3185 33.5263H25.9428C26.921 33.5263 27.6418 33.3379 28.1051 32.9611C28.5771 32.5757 28.813 32.0662 28.813 31.4325C28.813 31.1071 28.753 30.7902 28.6328 30.4819C28.5127 30.1651 28.281 29.9039 27.9378 29.6984C27.5946 29.4928 27.0883 29.3901 26.419 29.3901H22.3185C22.0952 29.3901 21.9142 29.5707 21.9142 29.7936V33.1228Z" fill="#2F80ED"/>
</g>
<g filter="url(#filter1_d_607_81)">
<path d="M8.12637 44.278C7.90307 44.278 7.72205 44.0973 7.72205 43.8744V26.6978C7.72205 26.475 7.90307 26.2943 8.12637 26.2943H10.621C10.7559 26.2943 10.8819 26.3614 10.9569 26.4732L17.9416 36.879C18.036 37.0331 18.1562 37.2429 18.302 37.5084C18.3231 37.5435 18.3438 37.5782 18.3639 37.6126C18.426 37.7184 18.6317 37.6565 18.6238 37.5341C18.6152 37.2601 18.6109 37.0417 18.6109 36.879V26.6978C18.6109 26.475 18.792 26.2943 19.0153 26.2943H21.5273C21.7506 26.2943 21.9317 26.475 21.9317 26.6978V43.8744C21.9317 44.0973 21.7506 44.278 21.5273 44.278H19.1728C19.0387 44.278 18.9134 44.2117 18.8381 44.101L11.7121 33.6162C11.6177 33.4706 11.4933 33.2651 11.3388 32.9996C11.3202 32.9657 11.3019 32.9322 11.284 32.8992C11.2218 32.7846 11.0125 32.8438 11.017 32.974C11.0256 33.2223 11.0299 33.4364 11.0299 33.6162V43.8744C11.0299 44.0973 10.8489 44.278 10.6256 44.278H8.12637Z" fill="#EDE8F1"/>
<path d="M19.543 44.278C19.3197 44.278 19.1386 44.0973 19.1386 43.8744V26.6978C19.1386 26.475 19.3197 26.2943 19.543 26.2943H26.3547C27.822 26.2943 28.9803 26.5298 29.8298 27.0008C30.6793 27.4632 31.2843 28.067 31.6446 28.812C32.005 29.5485 32.1852 30.3192 32.1852 31.1242C32.1852 31.9292 32.0093 32.6657 31.6575 33.3336C31.4484 33.7256 31.1604 34.0646 30.7936 34.3507C30.5067 34.5745 30.5286 35.1005 30.8368 35.2941C31.0998 35.4592 31.3348 35.6493 31.5417 35.8642C31.9707 36.2924 32.2839 36.7805 32.4813 37.3286C32.6872 37.8681 32.7902 38.4162 32.7902 38.9728C32.7902 39.6065 32.6829 40.2402 32.4684 40.8739C32.2625 41.4991 31.9235 42.0685 31.4516 42.5824C30.9796 43.0962 30.3533 43.5072 29.5724 43.8155C28.8001 44.1238 27.8477 44.278 26.715 44.278H19.543ZM21.9142 40.753C21.9142 40.9759 22.0952 41.1565 22.3185 41.1565H26.9339C27.5774 41.1565 28.0794 41.0452 28.4398 40.8225C28.8087 40.5999 29.0662 40.3216 29.212 39.9876C29.3665 39.645 29.4437 39.3068 29.4437 38.9728C29.4437 38.5617 29.3536 38.1721 29.1734 37.8038C29.0018 37.427 28.68 37.1188 28.2081 36.879C27.7447 36.6392 27.0711 36.5193 26.1873 36.5193H22.3185C22.0952 36.5193 21.9142 36.7 21.9142 36.9228V40.753ZM21.9142 33.1228C21.9142 33.3456 22.0952 33.5263 22.3185 33.5263H25.9428C26.921 33.5263 27.6418 33.3379 28.1051 32.9611C28.5771 32.5757 28.813 32.0662 28.813 31.4325C28.813 31.1071 28.753 30.7902 28.6328 30.4819C28.5127 30.1651 28.281 29.9039 27.9378 29.6984C27.5946 29.4928 27.0883 29.3901 26.419 29.3901H22.3185C22.0952 29.3901 21.9142 29.5707 21.9142 29.7936V33.1228Z" fill="#EDE8F1"/>
</g>
<g filter="url(#filter2_f_607_81)">
<path d="M8.12637 44.278C7.90307 44.278 7.72205 44.0973 7.72205 43.8744V26.6978C7.72205 26.475 7.90307 26.2943 8.12637 26.2943H10.621C10.7559 26.2943 10.8819 26.3614 10.9569 26.4732L17.9416 36.879C18.036 37.0331 18.1562 37.2429 18.302 37.5084C18.3231 37.5435 18.3438 37.5782 18.3639 37.6126C18.426 37.7184 18.6317 37.6565 18.6238 37.5341C18.6152 37.2601 18.6109 37.0417 18.6109 36.879V26.6978C18.6109 26.475 18.792 26.2943 19.0153 26.2943H21.5273C21.7506 26.2943 21.9317 26.475 21.9317 26.6978V43.8744C21.9317 44.0973 21.7506 44.278 21.5273 44.278H19.1728C19.0387 44.278 18.9134 44.2117 18.8381 44.101L11.7121 33.6162C11.6177 33.4706 11.4933 33.2651 11.3388 32.9996C11.3202 32.9657 11.3019 32.9322 11.284 32.8992C11.2218 32.7846 11.0125 32.8438 11.017 32.974C11.0256 33.2223 11.0299 33.4364 11.0299 33.6162V43.8744C11.0299 44.0973 10.8489 44.278 10.6256 44.278H8.12637Z" fill="#9B51E0"/>
<path d="M19.543 44.278C19.3197 44.278 19.1386 44.0973 19.1386 43.8744V26.6978C19.1386 26.475 19.3197 26.2943 19.543 26.2943H26.3547C27.822 26.2943 28.9803 26.5298 29.8298 27.0008C30.6793 27.4632 31.2843 28.067 31.6446 28.812C32.005 29.5485 32.1852 30.3192 32.1852 31.1242C32.1852 31.9292 32.0093 32.6657 31.6575 33.3336C31.4484 33.7256 31.1604 34.0646 30.7936 34.3507C30.5067 34.5745 30.5286 35.1005 30.8368 35.2941C31.0998 35.4592 31.3348 35.6493 31.5417 35.8642C31.9707 36.2924 32.2839 36.7805 32.4813 37.3286C32.6872 37.8681 32.7902 38.4161 32.7902 38.9728C32.7902 39.6065 32.6829 40.2402 32.4684 40.8739C32.2625 41.4991 31.9235 42.0685 31.4516 42.5824C30.9796 43.0962 30.3533 43.5072 29.5724 43.8155C28.8001 44.1238 27.8477 44.278 26.715 44.278H19.543ZM21.9142 40.753C21.9142 40.9759 22.0952 41.1565 22.3185 41.1565H26.9339C27.5774 41.1565 28.0794 41.0452 28.4398 40.8225C28.8087 40.5999 29.0662 40.3216 29.212 39.9876C29.3665 39.645 29.4437 39.3068 29.4437 38.9728C29.4437 38.5617 29.3536 38.1721 29.1734 37.8039C29.0018 37.427 28.68 37.1188 28.2081 36.879C27.7447 36.6392 27.0711 36.5193 26.1873 36.5193H22.3185C22.0952 36.5193 21.9142 36.7 21.9142 36.9228V40.753ZM21.9142 33.1228C21.9142 33.3456 22.0952 33.5263 22.3185 33.5263H25.9428C26.921 33.5263 27.6418 33.3379 28.1051 32.9611C28.577 32.5757 28.813 32.0662 28.813 31.4325C28.813 31.1071 28.753 30.7902 28.6328 30.4819C28.5127 30.1651 28.281 29.9039 27.9378 29.6984C27.5946 29.4928 27.0883 29.3901 26.419 29.3901H22.3185C22.0952 29.3901 21.9142 29.5707 21.9142 29.7936V33.1228Z" fill="#9B51E0"/>
<path d="M18.1109 36.234L11.3721 26.1946C11.204 25.9442 10.9222 25.7943 10.621 25.7943H8.12637C7.62786 25.7943 7.22205 26.1979 7.22205 26.6978V43.8744C7.22205 44.3744 7.62786 44.778 8.12637 44.778H10.6256C11.1241 44.778 11.5299 44.3744 11.5299 43.8744V34.2377L18.4246 44.382C18.5931 44.6299 18.8734 44.778 19.1728 44.778H19.543H21.5273H26.715C27.8893 44.778 28.9087 44.6187 29.7569 44.2802C30.5936 43.9498 31.2876 43.5001 31.8198 42.9206C32.3364 42.3582 32.7131 41.7282 32.9426 41.0323C33.1732 40.3505 33.2902 39.6634 33.2902 38.9728C33.2902 38.3545 33.1758 37.7475 32.9501 37.1546C32.7271 36.5377 32.3745 35.9899 31.8984 35.5138C31.663 35.2699 31.3973 35.0556 31.1027 34.8706C31.1113 34.876 31.1101 34.8791 31.1049 34.8689C31.0991 34.8577 31.0927 34.8377 31.0915 34.8116C31.0904 34.7855 31.095 34.764 31.1003 34.7508C31.1052 34.7384 31.1079 34.7397 31.1011 34.745C31.5204 34.418 31.855 34.0256 32.0987 33.569L32.0999 33.5666C32.492 32.8221 32.6852 32.0048 32.6852 31.1242C32.6852 30.2421 32.4872 29.3967 32.0944 28.5935C31.6814 27.7402 30.9947 27.066 30.0706 26.5626C29.1187 26.0353 27.866 25.7943 26.3547 25.7943H21.5273H19.543H19.0153C18.5167 25.7943 18.1109 26.1979 18.1109 26.6978V36.234ZM26.9339 40.6565H22.4317V37.0193H26.1873C27.0396 37.0193 27.6192 37.1372 27.9783 37.3231L27.9816 37.3247C28.3811 37.5277 28.6055 37.7632 28.7184 38.0111L28.7182 38.0112L28.7243 38.0236C28.8709 38.3232 28.9437 38.6377 28.9437 38.9728C28.9437 39.2275 28.8852 39.496 28.7562 39.7821L28.7562 39.782L28.7538 39.7875C28.6565 40.0103 28.4784 40.2152 28.1814 40.3944L28.1814 40.3944L28.177 40.3972C27.9264 40.5519 27.5292 40.6565 26.9339 40.6565ZM22.4317 33.0263V29.8901H26.419C27.0519 29.8901 27.4513 29.9899 27.6809 30.1273C27.9457 30.2859 28.092 30.4657 28.1653 30.6592L28.1653 30.6592L28.1669 30.6635C28.2649 30.9149 28.313 31.1702 28.313 31.4325C28.313 31.923 28.1393 32.2876 27.789 32.5737C27.456 32.8441 26.8733 33.0263 25.9428 33.0263H22.4317Z" stroke="#3E97E9"/>
</g>
<path d="M8.12637 44.278C7.90307 44.278 7.72205 44.0973 7.72205 43.8744V26.6978C7.72205 26.475 7.90307 26.2943 8.12637 26.2943H10.621C10.7559 26.2943 10.8819 26.3614 10.9569 26.4732L17.9416 36.879C18.036 37.0331 18.1562 37.2429 18.302 37.5084C18.3231 37.5435 18.3438 37.5782 18.3639 37.6126C18.426 37.7184 18.6317 37.6565 18.6238 37.5341C18.6152 37.2601 18.6109 37.0417 18.6109 36.879V26.6978C18.6109 26.475 18.792 26.2943 19.0153 26.2943L21.5273 26.2943C21.7506 26.2943 21.9317 26.475 21.9317 26.6978V43.8744C21.9317 44.0973 21.7506 44.278 21.5273 44.278H19.1728C19.0387 44.278 18.9134 44.2117 18.8381 44.101L11.7121 33.6162C11.6177 33.4706 11.4933 33.2651 11.3388 32.9996C11.3202 32.9657 11.3019 32.9322 11.284 32.8992C11.2218 32.7846 11.0125 32.8438 11.017 32.974C11.0256 33.2223 11.0299 33.4364 11.0299 33.6162V43.8744C11.0299 44.0973 10.8489 44.278 10.6256 44.278H8.12637Z" fill="#08030D"/>
<path d="M19.1728 44.278C18.9495 44.278 18.6238 43.1384 18.6238 42.9156L18.6109 26.6978C18.6109 26.475 18.792 26.2943 19.0153 26.2943L26.3547 26.2943C27.822 26.2943 28.9803 26.5298 29.8298 27.0008C30.6793 27.4632 31.2843 28.067 31.6446 28.812C32.005 29.5485 32.1852 30.3192 32.1852 31.1242C32.1852 31.9292 32.0093 32.6657 31.6575 33.3336C31.4484 33.7256 31.1604 34.0646 30.7936 34.3507C30.5067 34.5745 30.5286 35.1005 30.8368 35.2941C31.0998 35.4592 31.3348 35.6493 31.5417 35.8642C31.9707 36.2924 32.2839 36.7805 32.4813 37.3286C32.6872 37.8681 32.7902 38.4161 32.7902 38.9728C32.7902 39.6065 32.6829 40.2402 32.4684 40.8739C32.2625 41.4991 31.9235 42.0685 31.4516 42.5824C30.9796 43.0962 30.3533 43.5072 29.5724 43.8155C28.8001 44.1238 27.8477 44.278 26.715 44.278H19.1728ZM21.9142 40.753C21.9142 40.9759 22.0952 41.1565 22.3185 41.1565H26.9339C27.5774 41.1565 28.0794 41.0452 28.4398 40.8225C28.8087 40.5999 29.0662 40.3216 29.212 39.9876C29.3665 39.645 29.4437 39.3068 29.4437 38.9728C29.4437 38.5617 29.3536 38.1721 29.1734 37.8039C29.0018 37.427 28.68 37.1188 28.2081 36.879C27.7447 36.6392 27.0711 36.5193 26.1873 36.5193H22.3185C22.0952 36.5193 21.9142 36.7 21.9142 36.9228V40.753ZM21.9142 33.1228C21.9142 33.3456 22.0952 33.5263 22.3185 33.5263H25.9428C26.921 33.5263 27.6418 33.3379 28.1051 32.9611C28.577 32.5757 28.813 32.0662 28.813 31.4325C28.813 31.1071 28.753 30.7902 28.6328 30.4819C28.5127 30.1651 28.281 29.9039 27.9378 29.6984C27.5946 29.4928 27.0883 29.3901 26.419 29.3901H22.3185C22.0952 29.3901 21.9142 29.5707 21.9142 29.7936V33.1228Z" fill="#08030D"/>
<defs>
<filter id="filter0_f_607_81" x="0.722046" y="19.2943" width="39.0681" height="31.9836" filterUnits="userSpaceOnUse" color-interpolation-filters="sRGB">
<feFlood flood-opacity="0" result="BackgroundImageFix"/>
<feBlend mode="normal" in="SourceGraphic" in2="BackgroundImageFix" result="shape"/>
<feGaussianBlur stdDeviation="3.5" result="effect1_foregroundBlur_607_81"/>
</filter>
<filter id="filter1_d_607_81" x="4.72205" y="23.2943" width="31.0681" height="23.9836" filterUnits="userSpaceOnUse" color-interpolation-filters="sRGB">
<feFlood flood-opacity="0" result="BackgroundImageFix"/>
<feColorMatrix in="SourceAlpha" type="matrix" values="0 0 0 0 0 0 0 0 0 0 0 0 0 0 0 0 0 0 127 0" result="hardAlpha"/>
<feOffset/>
<feGaussianBlur stdDeviation="1.5"/>
<feComposite in2="hardAlpha" operator="out"/>
<feColorMatrix type="matrix" values="0 0 0 0 0.9375 0 0 0 0 0.015625 0 0 0 0 0.734687 0 0 0 1 0"/>
<feBlend mode="normal" in2="BackgroundImageFix" result="effect1_dropShadow_607_81"/>
<feBlend mode="normal" in="SourceGraphic" in2="effect1_dropShadow_607_81" result="shape"/>
</filter>
<filter id="filter2_f_607_81" x="3.72205" y="22.2943" width="33.0681" height="25.9836" filterUnits="userSpaceOnUse" color-interpolation-filters="sRGB">
<feFlood flood-opacity="0" result="BackgroundImageFix"/>
<feBlend mode="normal" in="SourceGraphic" in2="BackgroundImageFix" result="shape"/>
<feGaussianBlur stdDeviation="1.5" result="effect1_foregroundBlur_607_81"/>
</filter>
<linearGradient id="paint0_linear_607_81" x1="2" y1="0" x2="52" y2="50" gradientUnits="userSpaceOnUse">
<stop stop-color="#3B0198"/>
<stop offset="1" stop-color="#FF1111" stop-opacity="0.5"/>
</linearGradient>
<linearGradient id="paint1_linear_607_81" x1="52" y1="50" x2="2" y2="0" gradientUnits="userSpaceOnUse">
<stop stop-color="#E8862B"/>
<stop offset="1" stop-color="#CB22F5" stop-opacity="0.5"/>
</linearGradient>
</defs>
</svg>
