<svg width="50" height="50" viewBox="0 0 50 50" fill="none" xmlns="http://www.w3.org/2000/svg">
<g clip-path="url(#clip0_413_51)">
<rect width="50" height="50" rx="4" fill="#08030D"/>
<rect x="0.5" y="0.5" width="49" height="49" rx="3.5" stroke="url(#paint0_linear_413_51)" stroke-opacity="0.7"/>
<rect x="0.5" y="0.5" width="49" height="49" rx="3.5" stroke="url(#paint1_linear_413_51)" stroke-opacity="0.7"/>
<g filter="url(#filter0_f_413_51)">
<path d="M6.12637 44.278C5.90307 44.278 5.72205 44.0973 5.72205 43.8744V26.6978C5.72205 26.475 5.90307 26.2943 6.12637 26.2943H8.62103C8.75589 26.2943 8.88188 26.3614 8.95694 26.4732L15.9416 36.879C16.036 37.0331 16.1562 37.2429 16.302 37.5084C16.3231 37.5435 16.3438 37.5782 16.3639 37.6126C16.426 37.7184 16.6317 37.6565 16.6238 37.5341C16.6152 37.2601 16.6109 37.0417 16.6109 36.879V26.6978C16.6109 26.475 16.792 26.2943 17.0153 26.2943H19.5273C19.7506 26.2943 19.9317 26.475 19.9317 26.6978V43.8744C19.9317 44.0973 19.7506 44.278 19.5273 44.278H17.1728C17.0387 44.278 16.9134 44.2117 16.8381 44.101L9.71206 33.6162C9.61767 33.4706 9.49325 33.2651 9.3388 32.9996C9.32017 32.9657 9.30189 32.9322 9.28395 32.8992C9.22185 32.7846 9.01253 32.8438 9.01703 32.974C9.02561 33.2223 9.0299 33.4364 9.0299 33.6162V43.8744C9.0299 44.0973 8.84888 44.278 8.62557 44.278H6.12637Z" fill="#2F80ED"/>
<path d="M17.543 44.278C17.3197 44.278 17.1386 44.0973 17.1386 43.8744V26.6978C17.1386 26.475 17.3197 26.2943 17.543 26.2943H24.3547C25.822 26.2943 26.9803 26.5298 27.8298 27.0008C28.6793 27.4632 29.2843 28.067 29.6446 28.812C30.005 29.5485 30.1852 30.3192 30.1852 31.1242C30.1852 31.9292 30.0093 32.6657 29.6575 33.3336C29.4484 33.7256 29.1604 34.0646 28.7936 34.3507C28.5067 34.5745 28.5286 35.1005 28.8368 35.2941C29.0998 35.4592 29.3348 35.6493 29.5417 35.8642C29.9707 36.2924 30.2839 36.7805 30.4813 37.3286C30.6872 37.8681 30.7902 38.4162 30.7902 38.9728C30.7902 39.6065 30.6829 40.2402 30.4684 40.8739C30.2625 41.4991 29.9235 42.0685 29.4516 42.5824C28.9796 43.0962 28.3533 43.5072 27.5724 43.8155C26.8001 44.1238 25.8477 44.278 24.715 44.278H17.543ZM19.9142 40.753C19.9142 40.9759 20.0952 41.1565 20.3185 41.1565H24.9339C25.5774 41.1565 26.0794 41.0452 26.4398 40.8225C26.8087 40.5999 27.0662 40.3216 27.212 39.9876C27.3665 39.645 27.4437 39.3068 27.4437 38.9728C27.4437 38.5617 27.3536 38.1721 27.1734 37.8039C27.0018 37.427 26.68 37.1188 26.2081 36.879C25.7447 36.6392 25.0711 36.5193 24.1873 36.5193H20.3185C20.0952 36.5193 19.9142 36.7 19.9142 36.9228V40.753ZM19.9142 33.1228C19.9142 33.3456 20.0952 33.5263 20.3185 33.5263H23.9428C24.921 33.5263 25.6418 33.3379 26.1051 32.9611C26.5771 32.5757 26.813 32.0662 26.813 31.4325C26.813 31.1071 26.753 30.7902 26.6328 30.4819C26.5127 30.1651 26.281 29.9039 25.9378 29.6984C25.5946 29.4928 25.0883 29.3901 24.419 29.3901H20.3185C20.0952 29.3901 19.9142 29.5707 19.9142 29.7936V33.1228Z" fill="#2F80ED"/>
</g>
<g filter="url(#filter1_d_413_51)">
<path d="M6.12637 44.278C5.90307 44.278 5.72205 44.0973 5.72205 43.8744V26.6978C5.72205 26.475 5.90307 26.2943 6.12637 26.2943H8.62103C8.75589 26.2943 8.88188 26.3614 8.95694 26.4732L15.9416 36.879C16.036 37.0331 16.1562 37.2429 16.302 37.5084C16.3231 37.5435 16.3438 37.5782 16.3639 37.6126C16.426 37.7184 16.6317 37.6565 16.6238 37.5341C16.6152 37.2601 16.6109 37.0417 16.6109 36.879V26.6978C16.6109 26.475 16.792 26.2943 17.0153 26.2943H19.5273C19.7506 26.2943 19.9317 26.475 19.9317 26.6978V43.8744C19.9317 44.0973 19.7506 44.278 19.5273 44.278H17.1728C17.0387 44.278 16.9134 44.2117 16.8381 44.101L9.71206 33.6162C9.61767 33.4706 9.49325 33.2651 9.3388 32.9996C9.32017 32.9657 9.30189 32.9322 9.28395 32.8992C9.22185 32.7846 9.01253 32.8438 9.01703 32.974C9.02561 33.2223 9.0299 33.4364 9.0299 33.6162V43.8744C9.0299 44.0973 8.84888 44.278 8.62557 44.278H6.12637Z" fill="#EDE8F1"/>
<path d="M17.543 44.278C17.3197 44.278 17.1386 44.0973 17.1386 43.8744V26.6978C17.1386 26.475 17.3197 26.2943 17.543 26.2943H24.3547C25.822 26.2943 26.9803 26.5298 27.8298 27.0008C28.6793 27.4632 29.2843 28.067 29.6446 28.812C30.005 29.5485 30.1852 30.3192 30.1852 31.1242C30.1852 31.9292 30.0093 32.6657 29.6575 33.3336C29.4484 33.7256 29.1604 34.0646 28.7936 34.3507C28.5067 34.5745 28.5286 35.1005 28.8368 35.2941C29.0998 35.4592 29.3348 35.6493 29.5417 35.8642C29.9707 36.2924 30.2839 36.7805 30.4813 37.3286C30.6872 37.8681 30.7902 38.4162 30.7902 38.9728C30.7902 39.6065 30.6829 40.2402 30.4684 40.8739C30.2625 41.4991 29.9235 42.0685 29.4516 42.5824C28.9796 43.0962 28.3533 43.5072 27.5724 43.8155C26.8001 44.1238 25.8477 44.278 24.715 44.278H17.543ZM19.9142 40.753C19.9142 40.9759 20.0952 41.1565 20.3185 41.1565H24.9339C25.5774 41.1565 26.0794 41.0452 26.4398 40.8225C26.8087 40.5999 27.0662 40.3216 27.212 39.9876C27.3665 39.645 27.4437 39.3068 27.4437 38.9728C27.4437 38.5617 27.3536 38.1721 27.1734 37.8039C27.0018 37.427 26.68 37.1188 26.2081 36.879C25.7447 36.6392 25.0711 36.5193 24.1873 36.5193H20.3185C20.0952 36.5193 19.9142 36.7 19.9142 36.9228V40.753ZM19.9142 33.1228C19.9142 33.3456 20.0952 33.5263 20.3185 33.5263H23.9428C24.921 33.5263 25.6418 33.3379 26.1051 32.9611C26.5771 32.5757 26.813 32.0662 26.813 31.4325C26.813 31.1071 26.753 30.7902 26.6328 30.4819C26.5127 30.1651 26.281 29.9039 25.9378 29.6984C25.5946 29.4928 25.0883 29.3901 24.419 29.3901H20.3185C20.0952 29.3901 19.9142 29.5707 19.9142 29.7936V33.1228Z" fill="#EDE8F1"/>
</g>
<g filter="url(#filter2_f_413_51)">
<path d="M6.12637 44.278C5.90307 44.278 5.72205 44.0973 5.72205 43.8744V26.6978C5.72205 26.475 5.90307 26.2943 6.12637 26.2943H8.62103C8.75589 26.2943 8.88188 26.3614 8.95694 26.4732L15.9416 36.879C16.036 37.0331 16.1562 37.2429 16.302 37.5084C16.3231 37.5435 16.3438 37.5782 16.3639 37.6126C16.426 37.7184 16.6317 37.6565 16.6238 37.5341C16.6152 37.2601 16.6109 37.0417 16.6109 36.879V26.6978C16.6109 26.475 16.792 26.2943 17.0153 26.2943H19.5273C19.7506 26.2943 19.9317 26.475 19.9317 26.6978V43.8744C19.9317 44.0973 19.7506 44.278 19.5273 44.278H17.1728C17.0387 44.278 16.9134 44.2117 16.8381 44.101L9.71206 33.6162C9.61767 33.4706 9.49325 33.2651 9.3388 32.9996C9.32017 32.9657 9.30189 32.9322 9.28395 32.8992C9.22185 32.7846 9.01253 32.8438 9.01703 32.974C9.02561 33.2223 9.0299 33.4364 9.0299 33.6162V43.8744C9.0299 44.0973 8.84888 44.278 8.62557 44.278H6.12637Z" fill="#9B51E0"/>
<path d="M17.543 44.278C17.3197 44.278 17.1386 44.0973 17.1386 43.8744V26.6978C17.1386 26.475 17.3197 26.2943 17.543 26.2943H24.3547C25.822 26.2943 26.9803 26.5298 27.8298 27.0008C28.6793 27.4632 29.2843 28.067 29.6446 28.812C30.005 29.5485 30.1852 30.3192 30.1852 31.1242C30.1852 31.9292 30.0093 32.6657 29.6575 33.3336C29.4484 33.7256 29.1604 34.0646 28.7936 34.3507C28.5067 34.5745 28.5286 35.1005 28.8368 35.2941C29.0998 35.4592 29.3348 35.6493 29.5417 35.8642C29.9707 36.2924 30.2839 36.7805 30.4813 37.3286C30.6872 37.8681 30.7902 38.4162 30.7902 38.9728C30.7902 39.6065 30.6829 40.2402 30.4684 40.8739C30.2625 41.4991 29.9235 42.0685 29.4516 42.5824C28.9796 43.0962 28.3533 43.5072 27.5724 43.8155C26.8001 44.1238 25.8477 44.278 24.715 44.278H17.543ZM19.9142 40.753C19.9142 40.9759 20.0952 41.1565 20.3185 41.1565H24.9339C25.5774 41.1565 26.0794 41.0452 26.4398 40.8225C26.8087 40.5999 27.0662 40.3216 27.212 39.9876C27.3665 39.645 27.4437 39.3068 27.4437 38.9728C27.4437 38.5617 27.3536 38.1721 27.1734 37.8039C27.0018 37.427 26.68 37.1188 26.2081 36.879C25.7447 36.6392 25.0711 36.5193 24.1873 36.5193H20.3185C20.0952 36.5193 19.9142 36.7 19.9142 36.9228V40.753ZM19.9142 33.1228C19.9142 33.3456 20.0952 33.5263 20.3185 33.5263H23.9428C24.921 33.5263 25.6418 33.3379 26.1051 32.9611C26.577 32.5757 26.813 32.0662 26.813 31.4325C26.813 31.1071 26.753 30.7902 26.6328 30.4819C26.5127 30.1651 26.281 29.9039 25.9378 29.6984C25.5946 29.4928 25.0883 29.3901 24.419 29.3901H20.3185C20.0952 29.3901 19.9142 29.5707 19.9142 29.7936V33.1228Z" fill="#9B51E0"/>
<path d="M16.1109 36.234V26.6978C16.1109 26.1979 16.5167 25.7943 17.0153 25.7943H17.543H19.5273H24.3547C25.866 25.7943 27.1187 26.0353 28.0706 26.5626C28.9946 27.0659 29.6811 27.74 30.0942 28.5931C30.4871 29.3964 30.6852 30.2419 30.6852 31.1242C30.6852 32.0048 30.492 32.8221 30.0999 33.5666L30.0987 33.569C29.8556 34.0245 29.5221 34.416 29.1042 34.7425C29.1034 34.7439 29.102 34.7466 29.1003 34.7508C29.095 34.764 29.0904 34.7855 29.0915 34.8116C29.0927 34.8377 29.0991 34.8577 29.1049 34.8689C29.106 34.8711 29.1069 34.8727 29.1076 34.8737C29.4002 35.058 29.6643 35.2713 29.8984 35.5138C30.3745 35.9899 30.7272 36.5377 30.9501 37.1546C31.1758 37.7475 31.2902 38.3545 31.2902 38.9728C31.2902 39.6633 31.1732 40.3504 30.9427 41.0321C30.7132 41.7281 30.3364 42.3581 29.8198 42.9206C29.2876 43.5001 28.5936 43.9498 27.7569 44.2802C26.9087 44.6187 25.8892 44.778 24.715 44.778H19.5273H17.543H17.1728C16.8734 44.778 16.5931 44.6299 16.4246 44.382L16.6977 44.1964L16.4246 44.382L9.5299 34.2377V43.8744C9.5299 44.3744 9.12408 44.778 8.62557 44.778H6.12637C5.62786 44.778 5.22205 44.3744 5.22205 43.8744V26.6978C5.22205 26.1979 5.62786 25.7943 6.12637 25.7943H8.62103C8.92224 25.7943 9.20401 25.9442 9.37209 26.1946M16.1109 36.234L9.37209 26.1946M16.1109 36.234L9.37209 26.1946M16.1109 36.234L8.95694 26.4732L9.37209 26.1946M24.9339 40.6565H20.4317V37.0193H24.1873C25.0396 37.0193 25.6192 37.1372 25.9783 37.3231L25.9816 37.3247C26.3811 37.5277 26.6055 37.7632 26.7184 38.0111L26.7182 38.0112L26.7243 38.0236C26.8709 38.3232 26.9437 38.6377 26.9437 38.9728C26.9437 39.2275 26.8852 39.496 26.7562 39.7821L26.7562 39.782L26.7538 39.7875C26.6565 40.0103 26.4784 40.2152 26.1814 40.3944L26.1814 40.3944L26.177 40.3972C25.9264 40.5519 25.5292 40.6565 24.9339 40.6565ZM23.9428 33.0263H20.4317V29.8901H24.419C25.0519 29.8901 25.4513 29.9899 25.6809 30.1273C25.9457 30.2859 26.092 30.4657 26.1653 30.6592L26.1653 30.6592L26.1669 30.6635C26.2649 30.9149 26.313 31.1702 26.313 31.4325C26.313 31.9228 26.1394 32.2874 25.7893 32.5734C25.4564 32.844 24.8736 33.0263 23.9428 33.0263Z" stroke="#3E97E9"/>
</g>
<path d="M6.12637 44.278C5.90307 44.278 5.72205 44.0973 5.72205 43.8744V26.6978C5.72205 26.475 5.90307 26.2943 6.12637 26.2943H8.62103C8.75589 26.2943 8.88188 26.3614 8.95694 26.4732L15.9416 36.879C16.036 37.0331 16.1562 37.2429 16.302 37.5084C16.3231 37.5435 16.3438 37.5782 16.3639 37.6126C16.426 37.7184 16.6317 37.6565 16.6238 37.5341C16.6152 37.2601 16.6109 37.0417 16.6109 36.879V26.6978C16.6109 26.475 16.792 26.2943 17.0153 26.2943L19.5273 26.2943C19.7506 26.2943 19.9317 26.475 19.9317 26.6978V43.8744C19.9317 44.0973 19.7506 44.278 19.5273 44.278H17.1728C17.0387 44.278 16.9134 44.2117 16.8381 44.101L9.71206 33.6162C9.61767 33.4706 9.49325 33.2651 9.3388 32.9996C9.32017 32.9657 9.30189 32.9322 9.28395 32.8992C9.22185 32.7846 9.01253 32.8438 9.01703 32.974C9.02561 33.2223 9.0299 33.4364 9.0299 33.6162V43.8744C9.0299 44.0973 8.84888 44.278 8.62557 44.278H6.12637Z" fill="#08030D"/>
<path d="M17.1728 44.278C16.9495 44.278 16.6238 43.1384 16.6238 42.9156L16.6109 26.6978C16.6109 26.475 16.792 26.2943 17.0153 26.2943L24.3547 26.2943C25.822 26.2943 26.9803 26.5298 27.8298 27.0008C28.6793 27.4632 29.2843 28.067 29.6446 28.812C30.005 29.5485 30.1852 30.3192 30.1852 31.1242C30.1852 31.9292 30.0093 32.6657 29.6575 33.3336C29.4484 33.7256 29.1604 34.0646 28.7936 34.3507C28.5067 34.5745 28.5286 35.1005 28.8368 35.2941C29.0998 35.4592 29.3348 35.6493 29.5417 35.8642C29.9707 36.2924 30.2839 36.7805 30.4813 37.3286C30.6872 37.8681 30.7902 38.4162 30.7902 38.9728C30.7902 39.6065 30.6829 40.2402 30.4684 40.8739C30.2625 41.4991 29.9235 42.0685 29.4516 42.5824C28.9796 43.0962 28.3533 43.5072 27.5724 43.8155C26.8001 44.1238 25.8477 44.278 24.715 44.278H17.1728ZM19.9142 40.753C19.9142 40.9759 20.0952 41.1565 20.3185 41.1565H24.9339C25.5774 41.1565 26.0794 41.0452 26.4398 40.8225C26.8087 40.5999 27.0662 40.3216 27.212 39.9876C27.3665 39.645 27.4437 39.3068 27.4437 38.9728C27.4437 38.5617 27.3536 38.1721 27.1734 37.8039C27.0018 37.427 26.68 37.1188 26.2081 36.879C25.7447 36.6392 25.0711 36.5193 24.1873 36.5193H20.3185C20.0952 36.5193 19.9142 36.7 19.9142 36.9228V40.753ZM19.9142 33.1228C19.9142 33.3456 20.0952 33.5263 20.3185 33.5263H23.9428C24.921 33.5263 25.6418 33.3379 26.1051 32.9611C26.577 32.5757 26.813 32.0662 26.813 31.4325C26.813 31.1071 26.753 30.7902 26.6328 30.4819C26.5127 30.1651 26.281 29.9039 25.9378 29.6984C25.5946 29.4928 25.0883 29.3901 24.419 29.3901H20.3185C20.0952 29.3901 19.9142 29.5707 19.9142 29.7936V33.1228Z" fill="#08030D"/>
</g>
<defs>
<filter id="filter0_f_413_51" x="-9.27795" y="11.2943" width="55.0681" height="47.9836" filterUnits="userSpaceOnUse" color-interpolation-filters="sRGB">
<feFlood flood-opacity="0" result="BackgroundImageFix"/>
<feBlend mode="normal" in="SourceGraphic" in2="BackgroundImageFix" result="shape"/>
<feGaussianBlur stdDeviation="7.5" result="effect1_foregroundBlur_413_51"/>
</filter>
<filter id="filter1_d_413_51" x="0.722046" y="21.2943" width="35.0681" height="27.9836" filterUnits="userSpaceOnUse" color-interpolation-filters="sRGB">
<feFlood flood-opacity="0" result="BackgroundImageFix"/>
<feColorMatrix in="SourceAlpha" type="matrix" values="0 0 0 0 0 0 0 0 0 0 0 0 0 0 0 0 0 0 127 0" result="hardAlpha"/>
<feOffset/>
<feGaussianBlur stdDeviation="2.5"/>
<feComposite in2="hardAlpha" operator="out"/>
<feColorMatrix type="matrix" values="0 0 0 0 0.9375 0 0 0 0 0.015625 0 0 0 0 0.734687 0 0 0 1 0"/>
<feBlend mode="normal" in2="BackgroundImageFix" result="effect1_dropShadow_413_51"/>
<feBlend mode="normal" in="SourceGraphic" in2="effect1_dropShadow_413_51" result="shape"/>
</filter>
<filter id="filter2_f_413_51" x="0.722046" y="21.2943" width="35.0681" height="27.9836" filterUnits="userSpaceOnUse" color-interpolation-filters="sRGB">
<feFlood flood-opacity="0" result="BackgroundImageFix"/>
<feBlend mode="normal" in="SourceGraphic" in2="BackgroundImageFix" result="shape"/>
<feGaussianBlur stdDeviation="2" result="effect1_foregroundBlur_413_51"/>
</filter>
<linearGradient id="paint0_linear_413_51" x1="0" y1="0" x2="50" y2="50" gradientUnits="userSpaceOnUse">
<stop stop-color="#3B0198"/>
<stop offset="1" stop-color="#FF1111" stop-opacity="0.5"/>
</linearGradient>
<linearGradient id="paint1_linear_413_51" x1="50" y1="50" x2="0" y2="0" gradientUnits="userSpaceOnUse">
<stop stop-color="#E8862B"/>
<stop offset="1" stop-color="#CB22F5" stop-opacity="0.5"/>
</linearGradient>
<clipPath id="clip0_413_51">
<rect width="50" height="50" fill="white"/>
</clipPath>
</defs>
</svg>
